M48
; DRILL file {KiCad 9.0.2} date 2025-10-05T12:31:09-0500
; FORMAT={-:-/ absolute / metric / decimal}
; #@! TF.CreationDate,2025-10-05T12:31:09-05:00
; #@! TF.GenerationSoftware,Kicad,Pcbnew,9.0.2
; #@! TF.FileFunction,NonPlated,1,2,NPTH
FMAT,2
METRIC
; #@! TA.AperFunction,NonPlated,NPTH,ComponentDrill
T1C0.500
; #@! TA.AperFunction,NonPlated,NPTH,ComponentDrill
T2C1.700
; #@! TA.AperFunction,NonPlated,NPTH,ComponentDrill
T3C4.000
%
G90
G05
T1
X136.605Y-36.89
X136.605Y-37.64
X136.605Y-38.39
X136.605Y-39.14
X136.605Y-39.89
X136.605Y-40.64
X136.605Y-41.39
X136.605Y-42.14
X136.605Y-42.89
X136.605Y-43.64
X136.605Y-43.64
X136.605Y-44.39
X136.605Y-53.46
X136.605Y-54.21
X136.605Y-54.96
X136.605Y-55.71
X136.605Y-56.46
X136.605Y-57.21
X136.605Y-57.96
X136.605Y-58.71
X136.605Y-59.46
X136.605Y-60.21
X136.605Y-60.21
X136.605Y-60.96
X136.605Y-88.265
X136.605Y-89.015
X136.605Y-89.765
X136.605Y-90.515
X136.605Y-91.265
X136.605Y-92.015
X136.605Y-92.765
X136.605Y-93.515
X136.605Y-94.265
X136.605Y-95.015
X136.605Y-95.015
X136.605Y-95.765
X136.605Y-144.9
X136.605Y-145.65
X136.605Y-146.4
X136.605Y-147.15
X136.605Y-147.9
X136.605Y-148.65
X136.605Y-149.4
X136.605Y-150.15
X136.605Y-150.9
X136.605Y-151.65
X136.605Y-151.65
X136.605Y-152.4
X141.605Y-36.89
X141.605Y-37.64
X141.605Y-38.39
X141.605Y-39.14
X141.605Y-39.89
X141.605Y-40.64
X141.605Y-41.39
X141.605Y-42.14
X141.605Y-42.89
X141.605Y-43.64
X141.605Y-43.64
X141.605Y-44.39
X141.605Y-53.46
X141.605Y-54.21
X141.605Y-54.96
X141.605Y-55.71
X141.605Y-56.46
X141.605Y-57.21
X141.605Y-57.96
X141.605Y-58.71
X141.605Y-59.46
X141.605Y-60.21
X141.605Y-60.21
X141.605Y-60.96
X141.605Y-88.265
X141.605Y-89.015
X141.605Y-89.765
X141.605Y-90.515
X141.605Y-91.265
X141.605Y-92.015
X141.605Y-92.765
X141.605Y-93.515
X141.605Y-94.265
X141.605Y-95.015
X141.605Y-95.015
X141.605Y-95.765
X141.605Y-144.9
X141.605Y-145.65
X141.605Y-146.4
X141.605Y-147.15
X141.605Y-147.9
X141.605Y-148.65
X141.605Y-149.4
X141.605Y-150.15
X141.605Y-150.9
X141.605Y-151.65
X141.605Y-151.65
X141.605Y-152.4
T2
X43.18Y-72.39
X43.18Y-91.44
X43.18Y-110.49
X43.18Y-129.54
X43.18Y-148.59
X53.34Y-72.39
X53.34Y-91.44
X53.34Y-110.49
X53.34Y-129.54
X53.34Y-148.59
X62.23Y-72.39
X62.23Y-91.44
X62.23Y-110.49
X62.23Y-129.54
X62.23Y-148.59
X72.39Y-72.39
X72.39Y-91.44
X72.39Y-110.49
X72.39Y-129.54
X72.39Y-148.59
X81.28Y-72.39
X81.28Y-91.44
X81.28Y-110.49
X81.28Y-129.54
X81.28Y-148.59
X91.44Y-72.39
X91.44Y-91.44
X91.44Y-110.49
X91.44Y-129.54
X91.44Y-148.59
X100.33Y-72.39
X100.33Y-91.44
X100.33Y-110.49
X100.33Y-129.54
X100.33Y-148.59
X110.49Y-72.39
X110.49Y-91.44
X110.49Y-110.49
X110.49Y-129.54
X110.49Y-148.59
X119.23Y-72.39
X119.38Y-91.44
X119.38Y-110.49
X119.38Y-129.54
X119.38Y-148.59
X129.39Y-72.39
X129.54Y-91.44
X129.54Y-110.49
X129.54Y-129.54
X129.54Y-148.59
X148.59Y-72.39
X148.59Y-91.44
X148.59Y-110.49
X148.59Y-129.54
X148.59Y-148.59
X158.75Y-72.39
X158.75Y-91.44
X158.75Y-110.49
X158.75Y-129.54
X158.75Y-148.59
X167.64Y-72.39
X167.64Y-91.44
X167.64Y-110.49
X167.64Y-129.54
X167.64Y-148.59
X177.8Y-72.39
X177.8Y-91.44
X177.8Y-110.49
X177.8Y-129.54
X177.8Y-148.59
X186.69Y-72.39
X186.69Y-91.44
X186.69Y-110.49
X186.69Y-129.54
X186.69Y-148.59
X196.85Y-72.39
X196.85Y-91.44
X196.85Y-110.49
X196.85Y-129.54
X196.85Y-148.59
X205.74Y-72.39
X205.74Y-91.44
X205.74Y-110.49
X205.74Y-129.54
X205.74Y-148.59
X215.9Y-72.39
X215.9Y-91.44
X215.9Y-110.49
X215.9Y-129.54
X215.9Y-148.59
X224.79Y-72.39
X224.79Y-91.44
X224.79Y-110.49
X224.79Y-129.54
X224.79Y-148.59
X234.95Y-72.39
X234.95Y-91.44
X234.95Y-110.49
X234.95Y-129.54
X234.95Y-148.59
T3
X48.26Y-72.39
X48.26Y-91.44
X48.26Y-110.49
X48.26Y-129.54
X48.26Y-148.59
X67.31Y-72.39
X67.31Y-91.44
X67.31Y-110.49
X67.31Y-129.54
X67.31Y-148.59
X86.36Y-72.39
X86.36Y-91.44
X86.36Y-110.49
X86.36Y-129.54
X86.36Y-148.59
X105.41Y-72.39
X105.41Y-91.44
X105.41Y-110.49
X105.41Y-129.54
X105.41Y-148.59
X124.31Y-72.39
X124.46Y-91.44
X124.46Y-110.49
X124.46Y-129.54
X124.46Y-148.59
X153.67Y-72.39
X153.67Y-91.44
X153.67Y-110.49
X153.67Y-129.54
X153.67Y-148.59
X172.72Y-72.39
X172.72Y-91.44
X172.72Y-110.49
X172.72Y-129.54
X172.72Y-148.59
X191.77Y-72.39
X191.77Y-91.44
X191.77Y-110.49
X191.77Y-129.54
X191.77Y-148.59
X210.82Y-72.39
X210.82Y-91.44
X210.82Y-110.49
X210.82Y-129.54
X210.82Y-148.59
X229.87Y-72.39
X229.87Y-91.44
X229.87Y-110.49
X229.87Y-129.54
X229.87Y-148.59
M30
