%TF.GenerationSoftware,KiCad,Pcbnew,9.0.2*%
%TF.CreationDate,2025-10-05T12:30:13-05:00*%
%TF.ProjectId,keeb,6b656562-2e6b-4696-9361-645f70636258,rev?*%
%TF.SameCoordinates,Original*%
%TF.FileFunction,Copper,L1,Top*%
%TF.FilePolarity,Positive*%
%FSLAX46Y46*%
G04 Gerber Fmt 4.6, Leading zero omitted, Abs format (unit mm)*
G04 Created by KiCad (PCBNEW 9.0.2) date 2025-10-05 12:30:13*
%MOMM*%
%LPD*%
G01*
G04 APERTURE LIST*
G04 Aperture macros list*
%AMRoundRect*
0 Rectangle with rounded corners*
0 $1 Rounding radius*
0 $2 $3 $4 $5 $6 $7 $8 $9 X,Y pos of 4 corners*
0 Add a 4 corners polygon primitive as box body*
4,1,4,$2,$3,$4,$5,$6,$7,$8,$9,$2,$3,0*
0 Add four circle primitives for the rounded corners*
1,1,$1+$1,$2,$3*
1,1,$1+$1,$4,$5*
1,1,$1+$1,$6,$7*
1,1,$1+$1,$8,$9*
0 Add four rect primitives between the rounded corners*
20,1,$1+$1,$2,$3,$4,$5,0*
20,1,$1+$1,$4,$5,$6,$7,0*
20,1,$1+$1,$6,$7,$8,$9,0*
20,1,$1+$1,$8,$9,$2,$3,0*%
G04 Aperture macros list end*
%TA.AperFunction,SMDPad,CuDef*%
%ADD10R,1.066800X0.254000*%
%TD*%
%TA.AperFunction,SMDPad,CuDef*%
%ADD11R,0.254000X1.066800*%
%TD*%
%TA.AperFunction,SMDPad,CuDef*%
%ADD12R,3.860800X3.860800*%
%TD*%
%TA.AperFunction,ComponentPad*%
%ADD13C,2.200000*%
%TD*%
%TA.AperFunction,SMDPad,CuDef*%
%ADD14C,3.000000*%
%TD*%
%TA.AperFunction,SMDPad,CuDef*%
%ADD15C,4.000000*%
%TD*%
%TA.AperFunction,SMDPad,CuDef*%
%ADD16RoundRect,0.225000X-0.225000X-0.375000X0.225000X-0.375000X0.225000X0.375000X-0.225000X0.375000X0*%
%TD*%
%TA.AperFunction,ComponentPad*%
%ADD17C,4.800000*%
%TD*%
%TA.AperFunction,SMDPad,CuDef*%
%ADD18RoundRect,0.325000X0.325000X1.175000X-0.325000X1.175000X-0.325000X-1.175000X0.325000X-1.175000X0*%
%TD*%
%TA.AperFunction,HeatsinkPad*%
%ADD19O,1.200000X2.900000*%
%TD*%
%TA.AperFunction,ComponentPad*%
%ADD20RoundRect,0.250000X0.750000X0.750000X-0.750000X0.750000X-0.750000X-0.750000X0.750000X-0.750000X0*%
%TD*%
%TA.AperFunction,ComponentPad*%
%ADD21C,2.000000*%
%TD*%
%TA.AperFunction,ComponentPad*%
%ADD22RoundRect,0.250000X-0.750000X-0.750000X0.750000X-0.750000X0.750000X0.750000X-0.750000X0.750000X0*%
%TD*%
%TA.AperFunction,SMDPad,CuDef*%
%ADD23RoundRect,0.500000X-0.875000X-0.500000X0.875000X-0.500000X0.875000X0.500000X-0.875000X0.500000X0*%
%TD*%
%TA.AperFunction,ComponentPad*%
%ADD24RoundRect,0.750000X0.750000X0.750000X-0.750000X0.750000X-0.750000X-0.750000X0.750000X-0.750000X0*%
%TD*%
%TA.AperFunction,SMDPad,CuDef*%
%ADD25RoundRect,0.275000X-0.275000X0.975000X-0.275000X-0.975000X0.275000X-0.975000X0.275000X0.975000X0*%
%TD*%
%TA.AperFunction,SMDPad,CuDef*%
%ADD26C,1.700000*%
%TD*%
%TA.AperFunction,SMDPad,CuDef*%
%ADD27R,0.380000X1.000000*%
%TD*%
%TA.AperFunction,SMDPad,CuDef*%
%ADD28R,0.700000X1.150000*%
%TD*%
%TA.AperFunction,ViaPad*%
%ADD29C,0.600000*%
%TD*%
%TA.AperFunction,Conductor*%
%ADD30C,0.200000*%
%TD*%
G04 APERTURE END LIST*
D10*
%TO.P,U4,1,USBDM_DN1/PRT_DIS_M1*%
%TO.N,Net-(J2-D-)*%
X54305200Y-50038000D03*
%TO.P,U4,2,USBDP_DN1/PRT_DIS_P1*%
%TO.N,Net-(J2-D+)*%
X54305200Y-50546000D03*
%TO.P,U4,3,USBDM_DN2/PRT_DIS_M2*%
%TO.N,Net-(J4-D-)*%
X54305200Y-51054000D03*
%TO.P,U4,4,USBDP_DN2/PRT_DIS_P2*%
%TO.N,Net-(J4-D+)*%
X54305200Y-51562000D03*
%TO.P,U4,5,VDDA33*%
%TO.N,unconnected-(U4-VDDA33-Pad5)*%
X54305200Y-52070000D03*
%TO.P,U4,6,NC*%
%TO.N,unconnected-(U4-NC-Pad6)*%
X54305200Y-52578000D03*
%TO.P,U4,7,NC*%
%TO.N,unconnected-(U4-NC-Pad7)*%
X54305200Y-53086000D03*
%TO.P,U4,8,NC*%
%TO.N,unconnected-(U4-NC-Pad8)*%
X54305200Y-53594000D03*
%TO.P,U4,9,NC*%
%TO.N,unconnected-(U4-NC-Pad9)*%
X54305200Y-54102000D03*
D11*
%TO.P,U4,10,VDDA33*%
%TO.N,downVbus1*%
X55118000Y-54914800D03*
%TO.P,U4,11,TEST*%
%TO.N,unconnected-(U4-TEST-Pad11)*%
X55626000Y-54914800D03*
%TO.P,U4,12,PRTPWR1/BC_EN1*%
%TO.N,unconnected-(U4-PRTPWR1{slash}BC_EN1-Pad12)*%
X56134000Y-54914800D03*
%TO.P,U4,13,OCS_N1*%
%TO.N,unconnected-(U4-OCS_N1-Pad13)*%
X56642000Y-54914800D03*
%TO.P,U4,14,CRFILT*%
%TO.N,unconnected-(U4-CRFILT-Pad14)*%
X57150000Y-54914800D03*
%TO.P,U4,15,VDD33*%
%TO.N,unconnected-(U4-VDD33-Pad15)*%
X57658000Y-54914800D03*
%TO.P,U4,16,PRTPWR2/BC_EN2*%
%TO.N,unconnected-(U4-PRTPWR2{slash}BC_EN2-Pad16)*%
X58166000Y-54914800D03*
%TO.P,U4,17,OCS_N2*%
%TO.N,unconnected-(U4-OCS_N2-Pad17)*%
X58674000Y-54914800D03*
%TO.P,U4,18,NC*%
%TO.N,unconnected-(U4-NC-Pad18)*%
X59182000Y-54914800D03*
D10*
%TO.P,U4,19,NC*%
%TO.N,unconnected-(U4-NC-Pad19)*%
X59994800Y-54102000D03*
%TO.P,U4,20,NC*%
%TO.N,unconnected-(U4-NC-Pad20)*%
X59994800Y-53594000D03*
%TO.P,U4,21,NC*%
%TO.N,unconnected-(U4-NC-Pad21)*%
X59994800Y-53086000D03*
%TO.P,U4,22,SDA/SMBDATA/NON_REM1*%
%TO.N,unconnected-(U4-SDA{slash}SMBDATA{slash}NON_REM1-Pad22)*%
X59994800Y-52578000D03*
%TO.P,U4,23,VDD33*%
%TO.N,unconnected-(U4-VDD33-Pad23)*%
X59994800Y-52070000D03*
%TO.P,U4,24,SCL/SMBCLK/CFG_SEL0*%
%TO.N,unconnected-(U4-SCL{slash}SMBCLK{slash}CFG_SEL0-Pad24)*%
X59994800Y-51562000D03*
%TO.P,U4,25,HS_IND/CFG_SEL1*%
%TO.N,unconnected-(U4-HS_IND{slash}CFG_SEL1-Pad25)*%
X59994800Y-51054000D03*
%TO.P,U4,26,RESET_N*%
%TO.N,unconnected-(U4-RESET_N-Pad26)*%
X59994800Y-50546000D03*
%TO.P,U4,27,VBUS_DET*%
%TO.N,Net-(U4-VBUS_DET)*%
X59994800Y-50038000D03*
D11*
%TO.P,U4,28,SUSP_IND/LOCAL_PWR/NON_REM0*%
%TO.N,unconnected-(U4-SUSP_IND{slash}LOCAL_PWR{slash}NON_REM0-Pad28)*%
X59182000Y-49225200D03*
%TO.P,U4,29,VDDA33*%
%TO.N,Net-(U4-VBUS_DET)*%
X58674000Y-49225200D03*
%TO.P,U4,30,USBDM_UP*%
%TO.N,Net-(P2-D-)*%
X58166000Y-49225200D03*
%TO.P,U4,31,USBDP_UP*%
%TO.N,Net-(P2-D+)*%
X57658000Y-49225200D03*
%TO.P,U4,32,XTALOUT*%
%TO.N,unconnected-(U4-XTALOUT-Pad32)*%
X57150000Y-49225200D03*
%TO.P,U4,33,XTALIN/CLKIN*%
%TO.N,unconnected-(U4-XTALIN{slash}CLKIN-Pad33)*%
X56642000Y-49225200D03*
%TO.P,U4,34,PLLFILT*%
%TO.N,unconnected-(U4-PLLFILT-Pad34)*%
X56134000Y-49225200D03*
%TO.P,U4,35,RBIAS*%
%TO.N,unconnected-(U4-RBIAS-Pad35)*%
X55626000Y-49225200D03*
%TO.P,U4,36,VDDA33*%
%TO.N,downVbus0*%
X55118000Y-49225200D03*
D12*
%TO.P,U4,37,EPAD*%
%TO.N,GND*%
X57150000Y-52070000D03*
%TD*%
D13*
%TO.P,SW43,1,1*%
%TO.N,col4*%
X232410000Y-86360000D03*
%TO.P,SW43,2,2*%
%TO.N,Net-(D43-A)*%
X226060000Y-88900000D03*
%TD*%
%TO.P,SW17,1,1*%
%TO.N,col1*%
X175260000Y-124460000D03*
%TO.P,SW17,2,2*%
%TO.N,Net-(D17-A)*%
X168910000Y-127000000D03*
%TD*%
%TO.P,SW28,1,1*%
%TO.N,col3*%
X88900000Y-124460000D03*
%TO.P,SW28,2,2*%
%TO.N,Net-(D28-A)*%
X82550000Y-127000000D03*
%TD*%
%TO.P,SW33,1,1*%
%TO.N,col3*%
X213360000Y-86360000D03*
%TO.P,SW33,2,2*%
%TO.N,Net-(D33-A)*%
X207010000Y-88900000D03*
%TD*%
D14*
%TO.P,TP2,1,1*%
%TO.N,/right/vbat*%
X120650000Y-55880000D03*
%TD*%
D13*
%TO.P,SW46,1,1*%
%TO.N,col2*%
X127000000Y-105410000D03*
%TO.P,SW46,2,2*%
%TO.N,Net-(D46-A)*%
X120650000Y-107950000D03*
%TD*%
D15*
%TO.P,TP8,1,1*%
%TO.N,GND*%
X132715000Y-40640000D03*
%TD*%
D16*
%TO.P,D26,1,K*%
%TO.N,row3*%
X84710000Y-115570000D03*
%TO.P,D26,2,A*%
%TO.N,Net-(D26-A)*%
X88010000Y-115570000D03*
%TD*%
D13*
%TO.P,SW2,1,1*%
%TO.N,col0*%
X50800000Y-67310000D03*
%TO.P,SW2,2,2*%
%TO.N,Net-(D2-A)*%
X44450000Y-69850000D03*
%TD*%
D16*
%TO.P,D7,1,K*%
%TO.N,row2*%
X152020000Y-134620000D03*
%TO.P,D7,2,A*%
%TO.N,Net-(D7-A)*%
X155320000Y-134620000D03*
%TD*%
%TO.P,D19,1,K*%
%TO.N,row0*%
X171070000Y-153670000D03*
%TO.P,D19,2,A*%
%TO.N,Net-(D19-A)*%
X174370000Y-153670000D03*
%TD*%
D13*
%TO.P,SW36,1,1*%
%TO.N,col4*%
X107950000Y-105410000D03*
%TO.P,SW36,2,2*%
%TO.N,Net-(D36-A)*%
X101600000Y-107950000D03*
%TD*%
D16*
%TO.P,D27,1,K*%
%TO.N,row0*%
X190120000Y-134620000D03*
%TO.P,D27,2,A*%
%TO.N,Net-(D27-A)*%
X193420000Y-134620000D03*
%TD*%
D13*
%TO.P,SW13,1,1*%
%TO.N,col1*%
X175260000Y-86360000D03*
%TO.P,SW13,2,2*%
%TO.N,Net-(D13-A)*%
X168910000Y-88900000D03*
%TD*%
D16*
%TO.P,D22,1,K*%
%TO.N,row1*%
X84710000Y-77470000D03*
%TO.P,D22,2,A*%
%TO.N,Net-(D22-A)*%
X88010000Y-77470000D03*
%TD*%
%TO.P,D31,1,K*%
%TO.N,row2*%
X209170000Y-77470000D03*
%TO.P,D31,2,A*%
%TO.N,Net-(D31-A)*%
X212470000Y-77470000D03*
%TD*%
%TO.P,D18,1,K*%
%TO.N,row0*%
X65660000Y-134620000D03*
%TO.P,D18,2,A*%
%TO.N,Net-(D18-A)*%
X68960000Y-134620000D03*
%TD*%
D17*
%TO.P,H2,1*%
%TO.N,N/C*%
X102870000Y-33020000D03*
%TD*%
D16*
%TO.P,D46,1,K*%
%TO.N,row4*%
X122810000Y-115570000D03*
%TO.P,D46,2,A*%
%TO.N,Net-(D46-A)*%
X126110000Y-115570000D03*
%TD*%
D18*
%TO.P,J2,1,VBUS*%
%TO.N,downVbus0*%
X51400000Y-41800000D03*
%TO.P,J2,2,D-*%
%TO.N,Net-(J2-D-)*%
X48900000Y-41800000D03*
%TO.P,J2,3,D+*%
%TO.N,Net-(J2-D+)*%
X46900000Y-41800000D03*
%TO.P,J2,4,GND*%
%TO.N,GND*%
X44400000Y-41800000D03*
D19*
%TO.P,J2,5,Shield*%
%TO.N,unconnected-(J2-Shield-Pad5)*%
X54300000Y-38100000D03*
%TO.N,unconnected-(J2-Shield-Pad5)_1*%
X41500000Y-38100000D03*
%TD*%
D16*
%TO.P,D50,1,K*%
%TO.N,row4*%
X122810000Y-153670000D03*
%TO.P,D50,2,A*%
%TO.N,Net-(D50-A)*%
X126110000Y-153670000D03*
%TD*%
%TO.P,D34,1,K*%
%TO.N,row3*%
X103760000Y-96520000D03*
%TO.P,D34,2,A*%
%TO.N,Net-(D34-A)*%
X107060000Y-96520000D03*
%TD*%
D17*
%TO.P,H3,1*%
%TO.N,N/C*%
X237490000Y-57150000D03*
%TD*%
D20*
%TO.P,C3,1*%
%TO.N,downVbus0*%
X200540000Y-46990000D03*
D21*
%TO.P,C3,2*%
%TO.N,GND*%
X185540000Y-46990000D03*
%TD*%
D16*
%TO.P,D5,1,K*%
%TO.N,row1*%
X152020000Y-115570000D03*
%TO.P,D5,2,A*%
%TO.N,Net-(D5-A)*%
X155320000Y-115570000D03*
%TD*%
D15*
%TO.P,TP7,1,1*%
%TO.N,GND*%
X146685000Y-40640000D03*
%TD*%
D14*
%TO.P,TP3,1,1*%
%TO.N,GND*%
X167640000Y-57150000D03*
%TD*%
D16*
%TO.P,D10,1,K*%
%TO.N,row3*%
X46990000Y-153670000D03*
%TO.P,D10,2,A*%
%TO.N,Net-(D10-A)*%
X50290000Y-153670000D03*
%TD*%
D17*
%TO.P,H8,1*%
%TO.N,N/C*%
X38608000Y-156972000D03*
%TD*%
D16*
%TO.P,D9,1,K*%
%TO.N,row3*%
X152020000Y-153670000D03*
%TO.P,D9,2,A*%
%TO.N,Net-(D9-A)*%
X155320000Y-153670000D03*
%TD*%
%TO.P,D49,1,K*%
%TO.N,row4*%
X228220000Y-153670000D03*
%TO.P,D49,2,A*%
%TO.N,Net-(D49-A)*%
X231520000Y-153670000D03*
%TD*%
%TO.P,D41,1,K*%
%TO.N,row0*%
X228220000Y-77470000D03*
%TO.P,D41,2,A*%
%TO.N,Net-(D41-A)*%
X231520000Y-77470000D03*
%TD*%
%TO.P,D40,1,K*%
%TO.N,row1*%
X103760000Y-153670000D03*
%TO.P,D40,2,A*%
%TO.N,Net-(D40-A)*%
X107060000Y-153670000D03*
%TD*%
D13*
%TO.P,SW44,1,1*%
%TO.N,col4*%
X127000000Y-86360000D03*
%TO.P,SW44,2,2*%
%TO.N,Net-(D44-A)*%
X120650000Y-88900000D03*
%TD*%
D16*
%TO.P,D33,1,K*%
%TO.N,row3*%
X209170000Y-96520000D03*
%TO.P,D33,2,A*%
%TO.N,Net-(D33-A)*%
X212470000Y-96520000D03*
%TD*%
D13*
%TO.P,SW47,1,1*%
%TO.N,col1*%
X232410000Y-124460000D03*
%TO.P,SW47,2,2*%
%TO.N,Net-(D47-A)*%
X226060000Y-127000000D03*
%TD*%
D17*
%TO.P,H1,1*%
%TO.N,N/C*%
X177800000Y-33020000D03*
%TD*%
D13*
%TO.P,SW18,1,1*%
%TO.N,col1*%
X69850000Y-124460000D03*
%TO.P,SW18,2,2*%
%TO.N,Net-(D18-A)*%
X63500000Y-127000000D03*
%TD*%
%TO.P,SW32,1,1*%
%TO.N,col3*%
X107950000Y-67310000D03*
%TO.P,SW32,2,2*%
%TO.N,Net-(D32-A)*%
X101600000Y-69850000D03*
%TD*%
D16*
%TO.P,D11,1,K*%
%TO.N,row3*%
X171070000Y-77470000D03*
%TO.P,D11,2,A*%
%TO.N,Net-(D11-A)*%
X174370000Y-77470000D03*
%TD*%
%TO.P,D13,1,K*%
%TO.N,row2*%
X171070000Y-96520000D03*
%TO.P,D13,2,A*%
%TO.N,Net-(D13-A)*%
X174370000Y-96520000D03*
%TD*%
D22*
%TO.P,C2,1*%
%TO.N,Net-(U4-VBUS_DET)*%
X80130000Y-48260000D03*
D21*
%TO.P,C2,2*%
%TO.N,GND*%
X95130000Y-48260000D03*
%TD*%
D13*
%TO.P,SW5,1,1*%
%TO.N,col0*%
X156210000Y-105410000D03*
%TO.P,SW5,2,2*%
%TO.N,Net-(D5-A)*%
X149860000Y-107950000D03*
%TD*%
D16*
%TO.P,D37,1,K*%
%TO.N,row2*%
X209170000Y-134620000D03*
%TO.P,D37,2,A*%
%TO.N,Net-(D37-A)*%
X212470000Y-134620000D03*
%TD*%
%TO.P,D23,1,K*%
%TO.N,row2*%
X189740000Y-96520000D03*
%TO.P,D23,2,A*%
%TO.N,Net-(D23-A)*%
X193040000Y-96520000D03*
%TD*%
D13*
%TO.P,SW26,1,1*%
%TO.N,col2*%
X88900000Y-105410000D03*
%TO.P,SW26,2,2*%
%TO.N,Net-(D26-A)*%
X82550000Y-107950000D03*
%TD*%
D14*
%TO.P,TP4,1,1*%
%TO.N,GND*%
X111760000Y-55880000D03*
%TD*%
D16*
%TO.P,D25,1,K*%
%TO.N,row3*%
X190120000Y-115570000D03*
%TO.P,D25,2,A*%
%TO.N,Net-(D25-A)*%
X193420000Y-115570000D03*
%TD*%
D17*
%TO.P,H7,1*%
%TO.N,N/C*%
X144780000Y-120015000D03*
%TD*%
D13*
%TO.P,SW37,1,1*%
%TO.N,col4*%
X213360000Y-124460000D03*
%TO.P,SW37,2,2*%
%TO.N,Net-(D37-A)*%
X207010000Y-127000000D03*
%TD*%
D16*
%TO.P,D20,1,K*%
%TO.N,row0*%
X66040000Y-153670000D03*
%TO.P,D20,2,A*%
%TO.N,Net-(D20-A)*%
X69340000Y-153670000D03*
%TD*%
D23*
%TO.P,U1,1,P0.02_A0_D0*%
%TO.N,data0*%
X154505000Y-31428500D03*
%TO.P,U1,2,P0.03_A1_D1*%
%TO.N,col0*%
X154505000Y-33968500D03*
%TO.P,U1,3,P0.28_A2_D2*%
%TO.N,col1*%
X154505000Y-36508500D03*
%TO.P,U1,4,P0.29_A3_D3*%
%TO.N,col2*%
X154505000Y-39048500D03*
%TO.P,U1,5,P0.04_A4_D4_SDA*%
%TO.N,col3*%
X154505000Y-41588500D03*
%TO.P,U1,6,P0.05_A5_D5_SCL*%
%TO.N,col4*%
X154505000Y-44128500D03*
%TO.P,U1,7,P1.11_D6_TX*%
%TO.N,row4*%
X154505000Y-46668500D03*
%TO.P,U1,8,P1.12_D7_RX*%
%TO.N,row3*%
X170670000Y-46668500D03*
%TO.P,U1,9,P1.13_D8_SCK*%
%TO.N,row2*%
X170670000Y-44128500D03*
%TO.P,U1,10,P1.14_D9_MISO*%
%TO.N,row1*%
X170670000Y-41588500D03*
%TO.P,U1,11,P1.15_D10_MOSI*%
%TO.N,row0*%
X170670000Y-39048500D03*
%TO.P,U1,12,3V3*%
%TO.N,unconnected-(U1-3V3-Pad12)*%
X170670000Y-36508500D03*
%TO.P,U1,13,GND*%
%TO.N,GND*%
X170670000Y-33968500D03*
%TO.P,U1,14,5V*%
%TO.N,unconnected-(U1-5V-Pad14)*%
X170670000Y-31428500D03*
D24*
%TO.P,U1,15,BAT*%
%TO.N,/left/vbat*%
X158115000Y-39448500D03*
%TO.P,U1,16,GND*%
%TO.N,GND*%
X158115000Y-36048500D03*
D25*
%TO.P,U1,17,NFC1*%
%TO.N,unconnected-(U1-NFC1-Pad17)*%
X166370000Y-48285400D03*
%TO.P,U1,18,NFC2*%
%TO.N,unconnected-(U1-NFC2-Pad18)*%
X168275000Y-48285400D03*
D26*
%TO.P,U1,19,PA31_SWDIO*%
%TO.N,unconnected-(U1-PA31_SWDIO-Pad19)*%
X161290000Y-30480000D03*
%TO.P,U1,20,PA30_SWCLK*%
%TO.N,unconnected-(U1-PA30_SWCLK-Pad20)*%
X163830000Y-30480000D03*
%TO.P,U1,21,RESET*%
%TO.N,unconnected-(U1-RESET-Pad21)*%
X161290000Y-33020000D03*
%TO.P,U1,22,GND*%
%TO.N,unconnected-(U1-GND-Pad22)*%
X163830000Y-33020000D03*
%TD*%
D16*
%TO.P,D36,1,K*%
%TO.N,row3*%
X103760000Y-115570000D03*
%TO.P,D36,2,A*%
%TO.N,Net-(D36-A)*%
X107060000Y-115570000D03*
%TD*%
D13*
%TO.P,SW50,1,1*%
%TO.N,col0*%
X127000000Y-143510000D03*
%TO.P,SW50,2,2*%
%TO.N,Net-(D50-A)*%
X120650000Y-146050000D03*
%TD*%
D17*
%TO.P,H5,1*%
%TO.N,N/C*%
X239014000Y-157734000D03*
%TD*%
D16*
%TO.P,D4,1,K*%
%TO.N,row4*%
X46610000Y-96520000D03*
%TO.P,D4,2,A*%
%TO.N,Net-(D4-A)*%
X49910000Y-96520000D03*
%TD*%
D13*
%TO.P,SW20,1,1*%
%TO.N,col2*%
X69850000Y-143510000D03*
%TO.P,SW20,2,2*%
%TO.N,Net-(D20-A)*%
X63500000Y-146050000D03*
%TD*%
%TO.P,SW3,1,1*%
%TO.N,col3*%
X156210000Y-86360000D03*
%TO.P,SW3,2,2*%
%TO.N,Net-(D3-A)*%
X149860000Y-88900000D03*
%TD*%
D15*
%TO.P,TP5,1,1*%
%TO.N,data0*%
X146685000Y-33020000D03*
%TD*%
D20*
%TO.P,C5,1*%
%TO.N,downVbus1*%
X200540000Y-55880000D03*
D21*
%TO.P,C5,2*%
%TO.N,GND*%
X185540000Y-55880000D03*
%TD*%
D16*
%TO.P,D48,1,K*%
%TO.N,row4*%
X122810000Y-134620000D03*
%TO.P,D48,2,A*%
%TO.N,Net-(D48-A)*%
X126110000Y-134620000D03*
%TD*%
%TO.P,D16,1,K*%
%TO.N,row1*%
X66040000Y-115570000D03*
%TO.P,D16,2,A*%
%TO.N,Net-(D16-A)*%
X69340000Y-115570000D03*
%TD*%
D13*
%TO.P,SW31,1,1*%
%TO.N,col3*%
X213360000Y-67310000D03*
%TO.P,SW31,2,2*%
%TO.N,Net-(D31-A)*%
X207010000Y-69850000D03*
%TD*%
%TO.P,SW11,1,1*%
%TO.N,col1*%
X175260000Y-67310000D03*
%TO.P,SW11,2,2*%
%TO.N,Net-(D11-A)*%
X168910000Y-69850000D03*
%TD*%
D10*
%TO.P,U3,1,USBDM_DN1/PRT_DIS_M1*%
%TO.N,Net-(J1-D-)*%
X219100400Y-50292000D03*
%TO.P,U3,2,USBDP_DN1/PRT_DIS_P1*%
%TO.N,Net-(J1-D+)*%
X219100400Y-50800000D03*
%TO.P,U3,3,USBDM_DN2/PRT_DIS_M2*%
%TO.N,Net-(J3-D-)*%
X219100400Y-51308000D03*
%TO.P,U3,4,USBDP_DN2/PRT_DIS_P2*%
%TO.N,Net-(J3-D+)*%
X219100400Y-51816000D03*
%TO.P,U3,5,VDDA33*%
%TO.N,unconnected-(U3-VDDA33-Pad5)*%
X219100400Y-52324000D03*
%TO.P,U3,6,NC*%
%TO.N,unconnected-(U3-NC-Pad6)*%
X219100400Y-52832000D03*
%TO.P,U3,7,NC*%
%TO.N,unconnected-(U3-NC-Pad7)*%
X219100400Y-53340000D03*
%TO.P,U3,8,NC*%
%TO.N,unconnected-(U3-NC-Pad8)*%
X219100400Y-53848000D03*
%TO.P,U3,9,NC*%
%TO.N,unconnected-(U3-NC-Pad9)*%
X219100400Y-54356000D03*
D11*
%TO.P,U3,10,VDDA33*%
%TO.N,downVbus1*%
X219913200Y-55168800D03*
%TO.P,U3,11,TEST*%
%TO.N,unconnected-(U3-TEST-Pad11)*%
X220421200Y-55168800D03*
%TO.P,U3,12,PRTPWR1/BC_EN1*%
%TO.N,unconnected-(U3-PRTPWR1{slash}BC_EN1-Pad12)*%
X220929200Y-55168800D03*
%TO.P,U3,13,OCS_N1*%
%TO.N,unconnected-(U3-OCS_N1-Pad13)*%
X221437200Y-55168800D03*
%TO.P,U3,14,CRFILT*%
%TO.N,unconnected-(U3-CRFILT-Pad14)*%
X221945200Y-55168800D03*
%TO.P,U3,15,VDD33*%
%TO.N,unconnected-(U3-VDD33-Pad15)*%
X222453200Y-55168800D03*
%TO.P,U3,16,PRTPWR2/BC_EN2*%
%TO.N,unconnected-(U3-PRTPWR2{slash}BC_EN2-Pad16)*%
X222961200Y-55168800D03*
%TO.P,U3,17,OCS_N2*%
%TO.N,unconnected-(U3-OCS_N2-Pad17)*%
X223469200Y-55168800D03*
%TO.P,U3,18,NC*%
%TO.N,unconnected-(U3-NC-Pad18)*%
X223977200Y-55168800D03*
D10*
%TO.P,U3,19,NC*%
%TO.N,unconnected-(U3-NC-Pad19)*%
X224790000Y-54356000D03*
%TO.P,U3,20,NC*%
%TO.N,unconnected-(U3-NC-Pad20)*%
X224790000Y-53848000D03*
%TO.P,U3,21,NC*%
%TO.N,unconnected-(U3-NC-Pad21)*%
X224790000Y-53340000D03*
%TO.P,U3,22,SDA/SMBDATA/NON_REM1*%
%TO.N,unconnected-(U3-SDA{slash}SMBDATA{slash}NON_REM1-Pad22)*%
X224790000Y-52832000D03*
%TO.P,U3,23,VDD33*%
%TO.N,unconnected-(U3-VDD33-Pad23)*%
X224790000Y-52324000D03*
%TO.P,U3,24,SCL/SMBCLK/CFG_SEL0*%
%TO.N,unconnected-(U3-SCL{slash}SMBCLK{slash}CFG_SEL0-Pad24)*%
X224790000Y-51816000D03*
%TO.P,U3,25,HS_IND/CFG_SEL1*%
%TO.N,unconnected-(U3-HS_IND{slash}CFG_SEL1-Pad25)*%
X224790000Y-51308000D03*
%TO.P,U3,26,RESET_N*%
%TO.N,unconnected-(U3-RESET_N-Pad26)*%
X224790000Y-50800000D03*
%TO.P,U3,27,VBUS_DET*%
%TO.N,Net-(U3-VBUS_DET)*%
X224790000Y-50292000D03*
D11*
%TO.P,U3,28,SUSP_IND/LOCAL_PWR/NON_REM0*%
%TO.N,unconnected-(U3-SUSP_IND{slash}LOCAL_PWR{slash}NON_REM0-Pad28)*%
X223977200Y-49479200D03*
%TO.P,U3,29,VDDA33*%
%TO.N,Net-(U3-VBUS_DET)*%
X223469200Y-49479200D03*
%TO.P,U3,30,USBDM_UP*%
%TO.N,Net-(P1-D-)*%
X222961200Y-49479200D03*
%TO.P,U3,31,USBDP_UP*%
%TO.N,Net-(P1-D+)*%
X222453200Y-49479200D03*
%TO.P,U3,32,XTALOUT*%
%TO.N,unconnected-(U3-XTALOUT-Pad32)*%
X221945200Y-49479200D03*
%TO.P,U3,33,XTALIN/CLKIN*%
%TO.N,unconnected-(U3-XTALIN{slash}CLKIN-Pad33)*%
X221437200Y-49479200D03*
%TO.P,U3,34,PLLFILT*%
%TO.N,unconnected-(U3-PLLFILT-Pad34)*%
X220929200Y-49479200D03*
%TO.P,U3,35,RBIAS*%
%TO.N,unconnected-(U3-RBIAS-Pad35)*%
X220421200Y-49479200D03*
%TO.P,U3,36,VDDA33*%
%TO.N,downVbus0*%
X219913200Y-49479200D03*
D12*
%TO.P,U3,37,EPAD*%
%TO.N,GND*%
X221945200Y-52324000D03*
%TD*%
D13*
%TO.P,SW38,1,1*%
%TO.N,col4*%
X107950000Y-124460000D03*
%TO.P,SW38,2,2*%
%TO.N,Net-(D38-A)*%
X101600000Y-127000000D03*
%TD*%
D16*
%TO.P,D32,1,K*%
%TO.N,row2*%
X104140000Y-77470000D03*
%TO.P,D32,2,A*%
%TO.N,Net-(D32-A)*%
X107440000Y-77470000D03*
%TD*%
D20*
%TO.P,C1,1*%
%TO.N,Net-(U3-VBUS_DET)*%
X200540000Y-38100000D03*
D21*
%TO.P,C1,2*%
%TO.N,GND*%
X185540000Y-38100000D03*
%TD*%
D16*
%TO.P,D39,1,K*%
%TO.N,row1*%
X209170000Y-153670000D03*
%TO.P,D39,2,A*%
%TO.N,Net-(D39-A)*%
X212470000Y-153670000D03*
%TD*%
%TO.P,D17,1,K*%
%TO.N,row0*%
X171070000Y-134620000D03*
%TO.P,D17,2,A*%
%TO.N,Net-(D17-A)*%
X174370000Y-134620000D03*
%TD*%
D13*
%TO.P,SW35,1,1*%
%TO.N,col4*%
X213360000Y-105410000D03*
%TO.P,SW35,2,2*%
%TO.N,Net-(D35-A)*%
X207010000Y-107950000D03*
%TD*%
D23*
%TO.P,U2,1,P0.02_A0_D0*%
%TO.N,data0*%
X110000000Y-31750000D03*
%TO.P,U2,2,P0.03_A1_D1*%
%TO.N,col0*%
X110000000Y-34290000D03*
%TO.P,U2,3,P0.28_A2_D2*%
%TO.N,col1*%
X110000000Y-36830000D03*
%TO.P,U2,4,P0.29_A3_D3*%
%TO.N,col2*%
X110000000Y-39370000D03*
%TO.P,U2,5,P0.04_A4_D4_SDA*%
%TO.N,col3*%
X110000000Y-41910000D03*
%TO.P,U2,6,P0.05_A5_D5_SCL*%
%TO.N,col4*%
X110000000Y-44450000D03*
%TO.P,U2,7,P1.11_D6_TX*%
%TO.N,row4*%
X110000000Y-46990000D03*
%TO.P,U2,8,P1.12_D7_RX*%
%TO.N,row3*%
X126165000Y-46990000D03*
%TO.P,U2,9,P1.13_D8_SCK*%
%TO.N,row2*%
X126165000Y-44450000D03*
%TO.P,U2,10,P1.14_D9_MISO*%
%TO.N,row1*%
X126165000Y-41910000D03*
%TO.P,U2,11,P1.15_D10_MOSI*%
%TO.N,row0*%
X126165000Y-39370000D03*
%TO.P,U2,12,3V3*%
%TO.N,unconnected-(U2-3V3-Pad12)*%
X126165000Y-36830000D03*
%TO.P,U2,13,GND*%
%TO.N,GND*%
X126165000Y-34290000D03*
%TO.P,U2,14,5V*%
%TO.N,unconnected-(U2-5V-Pad14)*%
X126165000Y-31750000D03*
D24*
%TO.P,U2,15,BAT*%
%TO.N,/right/vbat*%
X113610000Y-39770000D03*
%TO.P,U2,16,GND*%
%TO.N,GND*%
X113610000Y-36370000D03*
D25*
%TO.P,U2,17,NFC1*%
%TO.N,unconnected-(U2-NFC1-Pad17)*%
X121865000Y-48606900D03*
%TO.P,U2,18,NFC2*%
%TO.N,unconnected-(U2-NFC2-Pad18)*%
X123770000Y-48606900D03*
D26*
%TO.P,U2,19,PA31_SWDIO*%
%TO.N,unconnected-(U2-PA31_SWDIO-Pad19)*%
X116785000Y-30801500D03*
%TO.P,U2,20,PA30_SWCLK*%
%TO.N,unconnected-(U2-PA30_SWCLK-Pad20)*%
X119325000Y-30801500D03*
%TO.P,U2,21,RESET*%
%TO.N,unconnected-(U2-RESET-Pad21)*%
X116785000Y-33341500D03*
%TO.P,U2,22,GND*%
%TO.N,unconnected-(U2-GND-Pad22)*%
X119325000Y-33341500D03*
%TD*%
D16*
%TO.P,D6,1,K*%
%TO.N,row1*%
X46990000Y-115570000D03*
%TO.P,D6,2,A*%
%TO.N,Net-(D6-A)*%
X50290000Y-115570000D03*
%TD*%
%TO.P,D2,1,K*%
%TO.N,row0*%
X46610000Y-77470000D03*
%TO.P,D2,2,A*%
%TO.N,Net-(D2-A)*%
X49910000Y-77470000D03*
%TD*%
D13*
%TO.P,SW10,1,1*%
%TO.N,col0*%
X50800000Y-143510000D03*
%TO.P,SW10,2,2*%
%TO.N,Net-(D10-A)*%
X44450000Y-146050000D03*
%TD*%
%TO.P,SW4,1,1*%
%TO.N,col3*%
X50800000Y-86360000D03*
%TO.P,SW4,2,2*%
%TO.N,Net-(D4-A)*%
X44450000Y-88900000D03*
%TD*%
%TO.P,SW48,1,1*%
%TO.N,col1*%
X127000000Y-124460000D03*
%TO.P,SW48,2,2*%
%TO.N,Net-(D48-A)*%
X120650000Y-127000000D03*
%TD*%
D17*
%TO.P,H6,1*%
%TO.N,N/C*%
X133350000Y-120015000D03*
%TD*%
D13*
%TO.P,SW9,1,1*%
%TO.N,col0*%
X156210000Y-143510000D03*
%TO.P,SW9,2,2*%
%TO.N,Net-(D9-A)*%
X149860000Y-146050000D03*
%TD*%
%TO.P,SW29,1,1*%
%TO.N,col3*%
X194310000Y-143510000D03*
%TO.P,SW29,2,2*%
%TO.N,Net-(D29-A)*%
X187960000Y-146050000D03*
%TD*%
D22*
%TO.P,C4,1*%
%TO.N,downVbus0*%
X80250000Y-39370000D03*
D21*
%TO.P,C4,2*%
%TO.N,GND*%
X95250000Y-39370000D03*
%TD*%
D16*
%TO.P,D45,1,K*%
%TO.N,row4*%
X228220000Y-115570000D03*
%TO.P,D45,2,A*%
%TO.N,Net-(D45-A)*%
X231520000Y-115570000D03*
%TD*%
D13*
%TO.P,SW27,1,1*%
%TO.N,col3*%
X194310000Y-124460000D03*
%TO.P,SW27,2,2*%
%TO.N,Net-(D27-A)*%
X187960000Y-127000000D03*
%TD*%
D27*
%TO.P,P2,A1,GND*%
%TO.N,GND*%
X84408000Y-29464000D03*
%TO.P,P2,A2*%
%TO.N,N/C*%
X84908000Y-29464000D03*
%TO.P,P2,A3*%
X85408000Y-29464000D03*
%TO.P,P2,A4,VBUS*%
%TO.N,Net-(U4-VBUS_DET)*%
X85908000Y-29464000D03*
%TO.P,P2,A5,CC*%
%TO.N,unconnected-(P2-CC-PadA5)*%
X86408000Y-29464000D03*
%TO.P,P2,A6,D+*%
%TO.N,Net-(P2-D+)*%
X86908000Y-29464000D03*
%TO.P,P2,A7,D-*%
%TO.N,Net-(P2-D-)*%
X87408000Y-29464000D03*
%TO.P,P2,A8*%
%TO.N,N/C*%
X87908000Y-29464000D03*
%TO.P,P2,A9,VBUS*%
%TO.N,Net-(U4-VBUS_DET)*%
X88408000Y-29464000D03*
%TO.P,P2,A10*%
%TO.N,N/C*%
X88908000Y-29464000D03*
%TO.P,P2,A11*%
X89408000Y-29464000D03*
%TO.P,P2,A12,GND*%
%TO.N,GND*%
X89908000Y-29464000D03*
D28*
%TO.P,P2,S1,SHIELD*%
%TO.N,unconnected-(P2-SHIELD-PadS1)_1*%
X83738000Y-30304000D03*
%TD*%
D13*
%TO.P,SW8,1,1*%
%TO.N,col0*%
X50800000Y-124460000D03*
%TO.P,SW8,2,2*%
%TO.N,Net-(D8-A)*%
X44450000Y-127000000D03*
%TD*%
%TO.P,SW39,1,1*%
%TO.N,col4*%
X213360000Y-143510000D03*
%TO.P,SW39,2,2*%
%TO.N,Net-(D39-A)*%
X207010000Y-146050000D03*
%TD*%
%TO.P,SW24,1,1*%
%TO.N,col2*%
X88900000Y-86360000D03*
%TO.P,SW24,2,2*%
%TO.N,Net-(D24-A)*%
X82550000Y-88900000D03*
%TD*%
D16*
%TO.P,D24,1,K*%
%TO.N,row2*%
X84710000Y-96520000D03*
%TO.P,D24,2,A*%
%TO.N,Net-(D24-A)*%
X88010000Y-96520000D03*
%TD*%
%TO.P,D28,1,K*%
%TO.N,row0*%
X84710000Y-134620000D03*
%TO.P,D28,2,A*%
%TO.N,Net-(D28-A)*%
X88010000Y-134620000D03*
%TD*%
D18*
%TO.P,J3,1,VBUS*%
%TO.N,downVbus1*%
X215590000Y-41540000D03*
%TO.P,J3,2,D-*%
%TO.N,Net-(J3-D-)*%
X213090000Y-41540000D03*
%TO.P,J3,3,D+*%
%TO.N,Net-(J3-D+)*%
X211090000Y-41540000D03*
%TO.P,J3,4,GND*%
%TO.N,GND*%
X208590000Y-41540000D03*
D19*
%TO.P,J3,5,Shield*%
%TO.N,unconnected-(J3-Shield-Pad5)*%
X218490000Y-37840000D03*
%TO.N,unconnected-(J3-Shield-Pad5)_1*%
X205690000Y-37840000D03*
%TD*%
D16*
%TO.P,D44,1,K*%
%TO.N,row4*%
X122810000Y-96520000D03*
%TO.P,D44,2,A*%
%TO.N,Net-(D44-A)*%
X126110000Y-96520000D03*
%TD*%
D13*
%TO.P,SW30,1,1*%
%TO.N,col3*%
X88900000Y-143510000D03*
%TO.P,SW30,2,2*%
%TO.N,Net-(D30-A)*%
X82550000Y-146050000D03*
%TD*%
%TO.P,SW34,1,1*%
%TO.N,col3*%
X107950000Y-86360000D03*
%TO.P,SW34,2,2*%
%TO.N,Net-(D34-A)*%
X101600000Y-88900000D03*
%TD*%
D16*
%TO.P,D43,1,K*%
%TO.N,row4*%
X228220000Y-96520000D03*
%TO.P,D43,2,A*%
%TO.N,Net-(D43-A)*%
X231520000Y-96520000D03*
%TD*%
D13*
%TO.P,SW49,1,1*%
%TO.N,col0*%
X232410000Y-143510000D03*
%TO.P,SW49,2,2*%
%TO.N,Net-(D49-A)*%
X226060000Y-146050000D03*
%TD*%
%TO.P,SW40,1,1*%
%TO.N,col4*%
X107950000Y-143510000D03*
%TO.P,SW40,2,2*%
%TO.N,Net-(D40-A)*%
X101600000Y-146050000D03*
%TD*%
D16*
%TO.P,D21,1,K*%
%TO.N,row1*%
X190120000Y-77470000D03*
%TO.P,D21,2,A*%
%TO.N,Net-(D21-A)*%
X193420000Y-77470000D03*
%TD*%
D13*
%TO.P,SW21,1,1*%
%TO.N,col2*%
X194310000Y-67310000D03*
%TO.P,SW21,2,2*%
%TO.N,Net-(D21-A)*%
X187960000Y-69850000D03*
%TD*%
D17*
%TO.P,H4,1*%
%TO.N,N/C*%
X43180000Y-57150000D03*
%TD*%
D16*
%TO.P,D38,1,K*%
%TO.N,row2*%
X103760000Y-134620000D03*
%TO.P,D38,2,A*%
%TO.N,Net-(D38-A)*%
X107060000Y-134620000D03*
%TD*%
%TO.P,D12,1,K*%
%TO.N,row3*%
X65660000Y-77470000D03*
%TO.P,D12,2,A*%
%TO.N,Net-(D12-A)*%
X68960000Y-77470000D03*
%TD*%
D13*
%TO.P,SW19,1,1*%
%TO.N,col2*%
X175260000Y-143510000D03*
%TO.P,SW19,2,2*%
%TO.N,Net-(D19-A)*%
X168910000Y-146050000D03*
%TD*%
D16*
%TO.P,D30,1,K*%
%TO.N,row1*%
X84710000Y-153670000D03*
%TO.P,D30,2,A*%
%TO.N,Net-(D30-A)*%
X88010000Y-153670000D03*
%TD*%
D18*
%TO.P,J1,1,VBUS*%
%TO.N,downVbus0*%
X235860000Y-41540000D03*
%TO.P,J1,2,D-*%
%TO.N,Net-(J1-D-)*%
X233360000Y-41540000D03*
%TO.P,J1,3,D+*%
%TO.N,Net-(J1-D+)*%
X231360000Y-41540000D03*
%TO.P,J1,4,GND*%
%TO.N,GND*%
X228860000Y-41540000D03*
D19*
%TO.P,J1,5,Shield*%
%TO.N,unconnected-(J1-Shield-Pad5)_1*%
X238760000Y-37840000D03*
%TO.N,unconnected-(J1-Shield-Pad5)*%
X225960000Y-37840000D03*
%TD*%
D16*
%TO.P,D29,1,K*%
%TO.N,row1*%
X190120000Y-153670000D03*
%TO.P,D29,2,A*%
%TO.N,Net-(D29-A)*%
X193420000Y-153670000D03*
%TD*%
D13*
%TO.P,SW41,1,1*%
%TO.N,col4*%
X232410000Y-67310000D03*
%TO.P,SW41,2,2*%
%TO.N,Net-(D41-A)*%
X226060000Y-69850000D03*
%TD*%
%TO.P,SW42,1,1*%
%TO.N,col4*%
X126850000Y-67310000D03*
%TO.P,SW42,2,2*%
%TO.N,Net-(D42-A)*%
X120500000Y-69850000D03*
%TD*%
%TO.P,SW7,1,1*%
%TO.N,col0*%
X156210000Y-124460000D03*
%TO.P,SW7,2,2*%
%TO.N,Net-(D7-A)*%
X149860000Y-127000000D03*
%TD*%
%TO.P,SW22,1,1*%
%TO.N,col2*%
X88900000Y-67310000D03*
%TO.P,SW22,2,2*%
%TO.N,Net-(D22-A)*%
X82550000Y-69850000D03*
%TD*%
D22*
%TO.P,C6,1*%
%TO.N,downVbus1*%
X80130000Y-57150000D03*
D21*
%TO.P,C6,2*%
%TO.N,GND*%
X95130000Y-57150000D03*
%TD*%
D16*
%TO.P,D15,1,K*%
%TO.N,row1*%
X171070000Y-115570000D03*
%TO.P,D15,2,A*%
%TO.N,Net-(D15-A)*%
X174370000Y-115570000D03*
%TD*%
%TO.P,D1,1,K*%
%TO.N,row0*%
X152020000Y-77470000D03*
%TO.P,D1,2,A*%
%TO.N,Net-(D1-A)*%
X155320000Y-77470000D03*
%TD*%
D13*
%TO.P,SW12,1,1*%
%TO.N,col1*%
X69850000Y-67310000D03*
%TO.P,SW12,2,2*%
%TO.N,Net-(D12-A)*%
X63500000Y-69850000D03*
%TD*%
D16*
%TO.P,D47,1,K*%
%TO.N,row4*%
X228220000Y-134620000D03*
%TO.P,D47,2,A*%
%TO.N,Net-(D47-A)*%
X231520000Y-134620000D03*
%TD*%
D18*
%TO.P,J4,1,VBUS*%
%TO.N,downVbus1*%
X73700000Y-42175000D03*
%TO.P,J4,2,D-*%
%TO.N,Net-(J4-D-)*%
X71200000Y-42175000D03*
%TO.P,J4,3,D+*%
%TO.N,Net-(J4-D+)*%
X69200000Y-42175000D03*
%TO.P,J4,4,GND*%
%TO.N,GND*%
X66700000Y-42175000D03*
D19*
%TO.P,J4,5,Shield*%
%TO.N,unconnected-(J4-Shield-Pad5)_1*%
X76600000Y-38475000D03*
%TO.N,unconnected-(J4-Shield-Pad5)*%
X63800000Y-38475000D03*
%TD*%
D13*
%TO.P,SW14,1,1*%
%TO.N,col1*%
X69850000Y-86360000D03*
%TO.P,SW14,2,2*%
%TO.N,Net-(D14-A)*%
X63500000Y-88900000D03*
%TD*%
D27*
%TO.P,P1,A1,GND*%
%TO.N,GND*%
X189410000Y-29390000D03*
%TO.P,P1,A2*%
%TO.N,N/C*%
X189910000Y-29390000D03*
%TO.P,P1,A3*%
X190410000Y-29390000D03*
%TO.P,P1,A4,VBUS*%
%TO.N,Net-(U3-VBUS_DET)*%
X190910000Y-29390000D03*
%TO.P,P1,A5,CC*%
%TO.N,unconnected-(P1-CC-PadA5)*%
X191410000Y-29390000D03*
%TO.P,P1,A6,D+*%
%TO.N,Net-(P1-D+)*%
X191910000Y-29390000D03*
%TO.P,P1,A7,D-*%
%TO.N,Net-(P1-D-)*%
X192410000Y-29390000D03*
%TO.P,P1,A8*%
%TO.N,N/C*%
X192910000Y-29390000D03*
%TO.P,P1,A9,VBUS*%
%TO.N,Net-(U3-VBUS_DET)*%
X193410000Y-29390000D03*
%TO.P,P1,A10*%
%TO.N,N/C*%
X193910000Y-29390000D03*
%TO.P,P1,A11*%
X194410000Y-29390000D03*
%TO.P,P1,A12,GND*%
%TO.N,GND*%
X194910000Y-29390000D03*
D28*
%TO.P,P1,S1,SHIELD*%
%TO.N,unconnected-(P1-SHIELD-PadS1)*%
X188740000Y-30230000D03*
%TD*%
D15*
%TO.P,TP6,1,1*%
%TO.N,data0*%
X132715000Y-33020000D03*
%TD*%
D14*
%TO.P,TP1,1,1*%
%TO.N,/left/vbat*%
X158750000Y-57150000D03*
%TD*%
D13*
%TO.P,SW23,1,1*%
%TO.N,col2*%
X194310000Y-86360000D03*
%TO.P,SW23,2,2*%
%TO.N,Net-(D23-A)*%
X187960000Y-88900000D03*
%TD*%
%TO.P,SW16,1,1*%
%TO.N,col1*%
X69850000Y-105410000D03*
%TO.P,SW16,2,2*%
%TO.N,Net-(D16-A)*%
X63500000Y-107950000D03*
%TD*%
D16*
%TO.P,D8,1,K*%
%TO.N,row2*%
X46610000Y-134620000D03*
%TO.P,D8,2,A*%
%TO.N,Net-(D8-A)*%
X49910000Y-134620000D03*
%TD*%
D13*
%TO.P,SW6,1,1*%
%TO.N,col0*%
X50800000Y-105410000D03*
%TO.P,SW6,2,2*%
%TO.N,Net-(D6-A)*%
X44450000Y-107950000D03*
%TD*%
%TO.P,SW15,1,1*%
%TO.N,col1*%
X175260000Y-105410000D03*
%TO.P,SW15,2,2*%
%TO.N,Net-(D15-A)*%
X168910000Y-107950000D03*
%TD*%
D16*
%TO.P,D35,1,K*%
%TO.N,row3*%
X209170000Y-115570000D03*
%TO.P,D35,2,A*%
%TO.N,Net-(D35-A)*%
X212470000Y-115570000D03*
%TD*%
%TO.P,D3,1,K*%
%TO.N,row4*%
X152020000Y-96520000D03*
%TO.P,D3,2,A*%
%TO.N,Net-(D3-A)*%
X155320000Y-96520000D03*
%TD*%
D13*
%TO.P,SW1,1,1*%
%TO.N,col0*%
X156210000Y-67310000D03*
%TO.P,SW1,2,2*%
%TO.N,Net-(D1-A)*%
X149860000Y-69850000D03*
%TD*%
D16*
%TO.P,D42,1,K*%
%TO.N,row0*%
X122810000Y-77470000D03*
%TO.P,D42,2,A*%
%TO.N,Net-(D42-A)*%
X126110000Y-77470000D03*
%TD*%
%TO.P,D14,1,K*%
%TO.N,row2*%
X65660000Y-96520000D03*
%TO.P,D14,2,A*%
%TO.N,Net-(D14-A)*%
X68960000Y-96520000D03*
%TD*%
D13*
%TO.P,SW45,1,1*%
%TO.N,col2*%
X232410000Y-105410000D03*
%TO.P,SW45,2,2*%
%TO.N,Net-(D45-A)*%
X226060000Y-107950000D03*
%TD*%
%TO.P,SW25,1,1*%
%TO.N,col2*%
X194310000Y-105410000D03*
%TO.P,SW25,2,2*%
%TO.N,Net-(D25-A)*%
X187960000Y-107950000D03*
%TD*%
D29*
%TO.N,GND*%
X66700000Y-42175000D03*
X145415000Y-37465000D03*
X196342000Y-33020000D03*
X132715000Y-40640000D03*
X221945200Y-52324000D03*
X57150000Y-52070000D03*
X87352815Y-30964815D03*
X194818000Y-33274000D03*
X52070000Y-50800000D03*
X228860000Y-41540000D03*
%TO.N,Net-(U3-VBUS_DET)*%
X202551000Y-36089000D03*
X232794849Y-36089551D03*
%TO.N,Net-(U4-VBUS_DET)*%
X60149529Y-49919000D03*
X80130000Y-45720000D03*
%TO.N,downVbus0*%
X217932000Y-46990000D03*
X89000000Y-33655000D03*
X220552000Y-48086000D03*
%TO.N,Net-(D1-A)*%
X155320000Y-77470000D03*
%TO.N,row0*%
X65660000Y-134620000D03*
X152400000Y-79375000D03*
X66040000Y-153670000D03*
X125730000Y-80010000D03*
X161870000Y-55245000D03*
X166370000Y-59690000D03*
X152020000Y-77470000D03*
X152474908Y-86920092D03*
%TO.N,row4*%
X153035000Y-99060000D03*
X122810000Y-96520000D03*
X111125000Y-48895000D03*
X152020000Y-96520000D03*
X50200000Y-99060000D03*
X170707528Y-81172528D03*
X161270000Y-67945000D03*
X158211000Y-99060000D03*
X153704000Y-52070000D03*
X118179000Y-101151000D03*
%TO.N,row1*%
X76200000Y-146069686D03*
X68580000Y-102870000D03*
X72390000Y-96520000D03*
X71120000Y-134620000D03*
X129540000Y-60960000D03*
X160020000Y-115570000D03*
X152020000Y-115570000D03*
X66040000Y-115570000D03*
X46990000Y-115570000D03*
X84710000Y-77470000D03*
X162580000Y-60360000D03*
%TO.N,row2*%
X128905000Y-64135000D03*
X188595000Y-118110000D03*
X152020000Y-134620000D03*
X184785000Y-99060000D03*
X104140000Y-77470000D03*
X186089000Y-98425000D03*
X184785000Y-114300000D03*
X187960000Y-86360000D03*
X126165000Y-44450000D03*
X170369000Y-109031000D03*
X198120000Y-124460000D03*
X163560000Y-59930000D03*
X85911500Y-95270030D03*
X190500000Y-83820000D03*
%TO.N,row3*%
X103760000Y-115570000D03*
X171070000Y-77470000D03*
X153095000Y-48895000D03*
X170670000Y-46668500D03*
X160020000Y-144780000D03*
X65660000Y-77470000D03*
X83820000Y-119380000D03*
X152020000Y-153670000D03*
X123190000Y-41275000D03*
X120650000Y-64770000D03*
X103760000Y-96520000D03*
X170380000Y-63570000D03*
X120650000Y-62230000D03*
X153095000Y-51435000D03*
X78740000Y-147320000D03*
X172720000Y-80010000D03*
%TO.N,Net-(J1-D+)*%
X222196000Y-43941000D03*
X231140000Y-37846000D03*
%TO.N,Net-(J1-D-)*%
X223012000Y-44196000D03*
X232156000Y-38862000D03*
%TO.N,Net-(J3-D+)*%
X211090000Y-41540000D03*
X217594265Y-51645735D03*
%TO.N,Net-(J3-D-)*%
X217383530Y-50586470D03*
X213090000Y-41540000D03*
%TO.N,Net-(P1-D-)*%
X192227200Y-30921400D03*
X223008265Y-46478265D03*
%TO.N,Net-(P1-D+)*%
X222373265Y-47113265D03*
X191643000Y-31521400D03*
%TO.N,Net-(P2-D-)*%
X64770000Y-41910000D03*
X73660000Y-33020000D03*
%TO.N,Net-(P2-D+)*%
X59690000Y-45720000D03*
X74930000Y-31750000D03*
%TO.N,col0*%
X151892000Y-34290000D03*
X110000000Y-34290000D03*
%TO.N,col3*%
X113665000Y-31750000D03*
X112336531Y-32420000D03*
X93980000Y-149860000D03*
X150495000Y-30010000D03*
X110000000Y-41910000D03*
X111610204Y-35555711D03*
X158750000Y-64770000D03*
X156845000Y-31915003D03*
%TO.N,col1*%
X158750000Y-67310000D03*
X132715000Y-97790000D03*
X153670000Y-142910000D03*
X152400000Y-60960000D03*
X66040000Y-82550000D03*
X111865973Y-42568601D03*
X135147529Y-84562471D03*
%TO.N,col2*%
X153777472Y-61487528D03*
X203200000Y-104140000D03*
X110000000Y-39370000D03*
X205740000Y-104140000D03*
X146720000Y-78105000D03*
X83820000Y-113030000D03*
%TO.N,col4*%
X133350000Y-66040000D03*
X154305000Y-52705000D03*
X154505000Y-44128500D03*
X110000000Y-44450000D03*
X155575000Y-50165000D03*
%TO.N,data0*%
X134620000Y-33020000D03*
X110000000Y-31750000D03*
%TD*%
D30*
%TO.N,GND*%
X195173600Y-31318200D02*
X197612000Y-31318200D01*
X108324000Y-30910942D02*
X108785942Y-30449000D01*
X95250000Y-39370000D02*
X95250000Y-40640000D01*
X219049600Y-43341000D02*
X210391000Y-43341000D01*
X44400000Y-41540000D02*
X44400000Y-43130000D01*
X113610000Y-32844942D02*
X113610000Y-36370000D01*
X95250000Y-39370000D02*
X96250000Y-40370000D01*
X189664000Y-33274000D02*
X189410000Y-33020000D01*
X185540000Y-38100000D02*
X185540000Y-46990000D01*
X185540000Y-38100000D02*
X189410000Y-34230000D01*
X184270000Y-57150000D02*
X167640000Y-57150000D01*
X95130000Y-40760000D02*
X95130000Y-48260000D01*
X150891000Y-38339000D02*
X148590000Y-40640000D01*
X185540000Y-46990000D02*
X185540000Y-55880000D01*
X197612000Y-31318200D02*
X197612000Y-31750000D01*
X146685000Y-40640000D02*
X146685000Y-38735000D01*
X168590000Y-36048500D02*
X158115000Y-36048500D01*
X150891000Y-31940721D02*
X150891000Y-38339000D01*
X107324000Y-40370000D02*
X108324000Y-39370000D01*
X111760000Y-55880000D02*
X96400000Y-55880000D01*
X185540000Y-55880000D02*
X184270000Y-57150000D01*
X95250000Y-40640000D02*
X95130000Y-40760000D01*
X96400000Y-55880000D02*
X95130000Y-57150000D01*
X153020721Y-29811000D02*
X150891000Y-31940721D01*
X126165000Y-34290000D02*
X128270000Y-34290000D01*
X189410000Y-34230000D02*
X189410000Y-33020000D01*
X44400000Y-43130000D02*
X52070000Y-50800000D01*
X128270000Y-34290000D02*
X134620000Y-40640000D01*
X227059000Y-43341000D02*
X219049600Y-43341000D01*
X108324000Y-39370000D02*
X108324000Y-30910942D01*
X170670000Y-33968500D02*
X168590000Y-36048500D01*
X89900000Y-34020000D02*
X89900000Y-30226000D01*
X185540000Y-38100000D02*
X174801500Y-38100000D01*
X89900000Y-30226000D02*
X89161185Y-30964815D01*
X194910000Y-29811000D02*
X194901000Y-29811000D01*
X156811000Y-29811000D02*
X153020721Y-29811000D01*
X197612000Y-31318200D02*
X207753498Y-31318200D01*
X126165000Y-34290000D02*
X124085000Y-36370000D01*
X194901000Y-29811000D02*
X194894200Y-29817800D01*
X96250000Y-40370000D02*
X107324000Y-40370000D01*
X124085000Y-36370000D02*
X113610000Y-36370000D01*
X146685000Y-38735000D02*
X145415000Y-37465000D01*
X228860000Y-41540000D02*
X227059000Y-43341000D01*
X189410000Y-33020000D02*
X189410000Y-29811000D01*
X207753498Y-31318200D02*
X219049600Y-42614302D01*
X194894200Y-31038800D02*
X195173600Y-31318200D01*
X194894200Y-29817800D02*
X194894200Y-31038800D01*
X89161185Y-30964815D02*
X87352815Y-30964815D01*
X210391000Y-43341000D02*
X208590000Y-41540000D01*
X158115000Y-31115000D02*
X156811000Y-29811000D01*
X174801500Y-38100000D02*
X170670000Y-33968500D01*
X111214058Y-30449000D02*
X113610000Y-32844942D01*
X108785942Y-30449000D02*
X111214058Y-30449000D01*
X89900000Y-30226000D02*
X89900000Y-29811000D01*
X194818000Y-33274000D02*
X189664000Y-33274000D01*
X158115000Y-36048500D02*
X158115000Y-31115000D01*
X95250000Y-39370000D02*
X89900000Y-34020000D01*
X95130000Y-48260000D02*
X95130000Y-57150000D01*
X219049600Y-42614302D02*
X219049600Y-43341000D01*
X197612000Y-31750000D02*
X196342000Y-33020000D01*
%TO.N,Net-(U3-VBUS_DET)*%
X224790000Y-50292000D02*
X224790000Y-49029600D01*
X223469200Y-48724800D02*
X223549200Y-48644800D01*
X223469200Y-49479200D02*
X223469200Y-48724800D01*
X200540000Y-38100000D02*
X193410000Y-30970000D01*
X232794849Y-36089551D02*
X232794298Y-36089000D01*
X224405200Y-48644800D02*
X223549200Y-48644800D01*
X224790000Y-49029600D02*
X224405200Y-48644800D01*
X202551000Y-36089000D02*
X200540000Y-38100000D01*
X193410000Y-30970000D02*
X193410000Y-29811000D01*
X223549200Y-48644800D02*
X231140498Y-48644800D01*
X236811000Y-40105702D02*
X232794849Y-36089551D01*
X231140498Y-48644800D02*
X236811000Y-42974298D01*
X236811000Y-42974298D02*
X236811000Y-40105702D01*
%TO.N,Net-(U4-VBUS_DET)*%
X60960000Y-49108529D02*
X60960000Y-48260000D01*
X60149529Y-49919000D02*
X60960000Y-49108529D01*
X60960000Y-48260000D02*
X60325000Y-47625000D01*
X60325000Y-47625000D02*
X59578900Y-47625000D01*
X80130000Y-45720000D02*
X80130000Y-45584702D01*
X80130000Y-48260000D02*
X80130000Y-45720000D01*
X59578900Y-47625000D02*
X58674000Y-48529900D01*
X58674000Y-48529900D02*
X58674000Y-49225200D01*
X60618198Y-50038000D02*
X59994800Y-50038000D01*
%TO.N,downVbus0*%
X233658000Y-43742000D02*
X235860000Y-41540000D01*
X56169257Y-48390800D02*
X55198000Y-48390800D01*
X55198000Y-48390800D02*
X55118000Y-48470800D01*
X83285000Y-39370000D02*
X80250000Y-39370000D01*
X65623057Y-38937000D02*
X74049398Y-38937000D01*
X220552000Y-48086000D02*
X224896000Y-43742000D01*
X79394000Y-40226000D02*
X80250000Y-39370000D01*
X224896000Y-43742000D02*
X233658000Y-43742000D01*
X65405000Y-39155057D02*
X65623057Y-38937000D01*
X74049398Y-38937000D02*
X75338398Y-40226000D01*
X89000000Y-33655000D02*
X83285000Y-39370000D01*
X55118000Y-48470800D02*
X55118000Y-49225200D01*
X51400000Y-41540000D02*
X51400000Y-45507200D01*
X219913200Y-49479200D02*
X219913200Y-48724800D01*
X75338398Y-40226000D02*
X79394000Y-40226000D01*
X219913200Y-48724800D02*
X220552000Y-48086000D01*
X65405000Y-39155057D02*
X56169257Y-48390800D01*
X51400000Y-45507200D02*
X55118000Y-49225200D01*
X200540000Y-46990000D02*
X217932000Y-46990000D01*
%TO.N,downVbus1*%
X73700000Y-50720000D02*
X73700000Y-41540000D01*
X55328800Y-55880000D02*
X55118000Y-55669200D01*
X55118000Y-55669200D02*
X55118000Y-54914800D01*
X80130000Y-57150000D02*
X73700000Y-50720000D01*
X200540000Y-55880000D02*
X219202000Y-55880000D01*
X68615702Y-39739000D02*
X68249000Y-40105702D01*
X213789000Y-39739000D02*
X202831000Y-39739000D01*
X219202000Y-55880000D02*
X219913200Y-55168800D01*
X68249000Y-44146000D02*
X62230000Y-50165000D01*
X215590000Y-41540000D02*
X213789000Y-39739000D01*
X71899000Y-39739000D02*
X68615702Y-39739000D01*
X202831000Y-39739000D02*
X198120000Y-44450000D01*
X198120000Y-53460000D02*
X200540000Y-55880000D01*
X62230000Y-50165000D02*
X62230000Y-55880000D01*
X73700000Y-41540000D02*
X71899000Y-39739000D01*
X68249000Y-40105702D02*
X68249000Y-44146000D01*
X62230000Y-55880000D02*
X55328800Y-55880000D01*
X198120000Y-44450000D02*
X198120000Y-53460000D01*
%TO.N,row0*%
X54541000Y-80010000D02*
X69841586Y-80010000D01*
X185420000Y-134620000D02*
X176661000Y-125861000D01*
X176661000Y-125861000D02*
X174679686Y-125861000D01*
X166439000Y-130037470D02*
X171021530Y-134620000D01*
X170670000Y-39048500D02*
X161870000Y-47848500D01*
X171070000Y-153670000D02*
X170620000Y-153670000D01*
X54541000Y-69069686D02*
X51380314Y-65909000D01*
X157549000Y-130037470D02*
X159385000Y-131873470D01*
X166439000Y-123541843D02*
X166439000Y-130037470D01*
X227770000Y-77470000D02*
X209990000Y-59690000D01*
X171821000Y-123002314D02*
X171821000Y-114671000D01*
X153960000Y-75530000D02*
X152020000Y-77470000D01*
X157611000Y-105990314D02*
X156790314Y-106811000D01*
X66561000Y-135521000D02*
X83809000Y-135521000D01*
X65210000Y-134620000D02*
X54541000Y-123951000D01*
X83809000Y-135521000D02*
X84710000Y-134620000D01*
X69841586Y-80010000D02*
X86351586Y-63500000D01*
X166439000Y-149489000D02*
X166439000Y-139251000D01*
X228220000Y-77470000D02*
X227770000Y-77470000D01*
X54541000Y-80010000D02*
X54541000Y-69069686D01*
X171450000Y-114300000D02*
X159737157Y-114300000D01*
X161870000Y-74700000D02*
X161040000Y-75530000D01*
X161870000Y-47848500D02*
X161870000Y-55245000D01*
X132080000Y-73660000D02*
X125730000Y-80010000D01*
X209990000Y-59690000D02*
X166370000Y-59690000D01*
X161870000Y-55245000D02*
X161870000Y-74700000D01*
X51380314Y-65909000D02*
X46409686Y-65909000D01*
X159385000Y-131873470D02*
X159385000Y-145415000D01*
X132080000Y-45285000D02*
X132080000Y-64770000D01*
X125730000Y-80010000D02*
X124460000Y-80010000D01*
X122810000Y-78360000D02*
X122810000Y-77470000D01*
X159385000Y-125653686D02*
X157549000Y-127489686D01*
X65660000Y-134620000D02*
X65210000Y-134620000D01*
X174679686Y-125861000D02*
X171821000Y-123002314D01*
X152474908Y-86920092D02*
X157611000Y-92056184D01*
X161040000Y-75530000D02*
X153960000Y-75530000D01*
X41979000Y-70339686D02*
X41979000Y-74999000D01*
X41979000Y-74999000D02*
X44450000Y-77470000D01*
X159419000Y-114618157D02*
X159419000Y-116521843D01*
X157611000Y-92056184D02*
X157611000Y-105990314D01*
X166439000Y-139251000D02*
X171070000Y-134620000D01*
X171821000Y-114671000D02*
X171450000Y-114300000D01*
X163459000Y-149489000D02*
X166439000Y-149489000D01*
X157549000Y-127489686D02*
X157549000Y-130037470D01*
X44450000Y-77470000D02*
X46610000Y-77470000D01*
X86351586Y-63500000D02*
X130810000Y-63500000D01*
X171021530Y-134620000D02*
X171070000Y-134620000D01*
X156790314Y-106811000D02*
X156790314Y-123059000D01*
X46409686Y-65909000D02*
X41979000Y-70339686D01*
X130810000Y-63500000D02*
X132080000Y-64770000D01*
X190120000Y-134620000D02*
X185420000Y-134620000D01*
X126165000Y-39370000D02*
X132080000Y-45285000D01*
X170620000Y-153670000D02*
X166439000Y-149489000D01*
X132080000Y-64770000D02*
X132080000Y-73660000D01*
X156790314Y-123059000D02*
X159385000Y-125653686D01*
X152400000Y-86845184D02*
X152474908Y-86920092D01*
X54541000Y-123951000D02*
X54541000Y-80010000D01*
X152400000Y-79375000D02*
X152400000Y-86845184D01*
X65660000Y-134620000D02*
X66561000Y-135521000D01*
X159419000Y-116521843D02*
X166439000Y-123541843D01*
X124460000Y-80010000D02*
X122810000Y-78360000D01*
X159385000Y-145415000D02*
X163459000Y-149489000D01*
X159737157Y-114300000D02*
X159419000Y-114618157D01*
%TO.N,Net-(D2-A)*%
X44450000Y-72010000D02*
X49910000Y-77470000D01*
X44450000Y-69850000D02*
X44450000Y-72010000D01*
%TO.N,Net-(D3-A)*%
X149860000Y-91060000D02*
X155320000Y-96520000D01*
X149860000Y-88900000D02*
X149860000Y-91060000D01*
%TO.N,row4*%
X118179000Y-149087470D02*
X118179000Y-139251000D01*
X111125000Y-48895000D02*
X111125000Y-48115000D01*
X122360000Y-115570000D02*
X122810000Y-115570000D01*
X227770000Y-153670000D02*
X223589000Y-149489000D01*
X158149000Y-64736100D02*
X158149000Y-65291957D01*
X122810000Y-153670000D02*
X122761530Y-153670000D01*
X231969110Y-135521000D02*
X229121000Y-135521000D01*
X228220000Y-96520000D02*
X233811000Y-102111000D01*
X154505000Y-46668500D02*
X153704000Y-47469500D01*
X195373470Y-88265000D02*
X193040000Y-88265000D01*
X118179000Y-111389000D02*
X122360000Y-115570000D01*
X47660000Y-96520000D02*
X50200000Y-99060000D01*
X236151000Y-123501000D02*
X236151000Y-131339110D01*
X229121000Y-135521000D02*
X228220000Y-134620000D01*
X122360000Y-134620000D02*
X118179000Y-130439000D01*
X160020000Y-91860057D02*
X160020000Y-97251000D01*
X227319000Y-97421000D02*
X211421110Y-97421000D01*
X211421110Y-97421000D02*
X208574152Y-94574042D01*
X152020000Y-97410000D02*
X152020000Y-96520000D01*
X228220000Y-115570000D02*
X231267500Y-118617500D01*
X232271000Y-117614000D02*
X231267500Y-118617500D01*
X201682512Y-94574042D02*
X195373470Y-88265000D01*
X153035000Y-98425000D02*
X152020000Y-97410000D01*
X118179000Y-130439000D02*
X118179000Y-120201000D01*
X228220000Y-96520000D02*
X227319000Y-97421000D01*
X118179000Y-101151000D02*
X118179000Y-111389000D01*
X122761530Y-153670000D02*
X118179000Y-149087470D01*
X236151000Y-131339110D02*
X231969110Y-135521000D01*
X153704000Y-47469500D02*
X153704000Y-52070000D01*
X223589000Y-139251000D02*
X228220000Y-134620000D01*
X153704000Y-52070000D02*
X153704000Y-60291100D01*
X111125000Y-48115000D02*
X110000000Y-46990000D01*
X46610000Y-96520000D02*
X47660000Y-96520000D01*
X193040000Y-88265000D02*
X184184000Y-79409000D01*
X160020000Y-97251000D02*
X158211000Y-99060000D01*
X122810000Y-134620000D02*
X122360000Y-134620000D01*
X160802043Y-67945000D02*
X161270000Y-67945000D01*
X232271000Y-107530314D02*
X232271000Y-117614000D01*
X233811000Y-105990314D02*
X232271000Y-107530314D01*
X233811000Y-102111000D02*
X233811000Y-105990314D01*
X223589000Y-149489000D02*
X223589000Y-139251000D01*
X170707528Y-81172528D02*
X160020000Y-91860057D01*
X153035000Y-99060000D02*
X153035000Y-98425000D01*
X231267500Y-118617500D02*
X236151000Y-123501000D01*
X228220000Y-153670000D02*
X227770000Y-153670000D01*
X158149000Y-65291957D02*
X160802043Y-67945000D01*
X184184000Y-79409000D02*
X172471057Y-79409000D01*
X118179000Y-120201000D02*
X122810000Y-115570000D01*
X118179000Y-101151000D02*
X122810000Y-96520000D01*
X118179000Y-139251000D02*
X122810000Y-134620000D01*
X172471057Y-79409000D02*
X170707528Y-81172528D01*
X153704000Y-60291100D02*
X158149000Y-64736100D01*
X208574152Y-94574042D02*
X201682512Y-94574042D01*
%TO.N,Net-(D4-A)*%
X44450000Y-88900000D02*
X44450000Y-91060000D01*
X44450000Y-91060000D02*
X49910000Y-96520000D01*
%TO.N,row1*%
X71120000Y-134620000D02*
X71120000Y-130025184D01*
X93731057Y-149259000D02*
X98899000Y-149259000D01*
X89251450Y-153738607D02*
X93731057Y-149259000D01*
X162580000Y-48370000D02*
X162580000Y-60360000D01*
X71120000Y-130025184D02*
X66040000Y-124945184D01*
X66040000Y-124945184D02*
X66040000Y-115570000D01*
X164060000Y-61840000D02*
X179990000Y-61840000D01*
X84710000Y-84200000D02*
X84710000Y-77470000D01*
X129540000Y-45285000D02*
X126165000Y-41910000D01*
X191021000Y-154571000D02*
X190120000Y-153670000D01*
X85611000Y-154571000D02*
X88701900Y-154571000D01*
X68066395Y-105607709D02*
X68066395Y-103383605D01*
X183910000Y-77470000D02*
X190120000Y-77470000D01*
X190120000Y-153670000D02*
X189230000Y-153670000D01*
X175840314Y-140280314D02*
X175840314Y-128850314D01*
X171070000Y-115570000D02*
X160020000Y-115570000D01*
X78339629Y-146069686D02*
X76200000Y-146069686D01*
X209170000Y-153670000D02*
X208269000Y-154571000D01*
X84710000Y-153670000D02*
X85611000Y-154571000D01*
X171070000Y-124080000D02*
X171070000Y-115570000D01*
X98899000Y-149259000D02*
X103310000Y-153670000D01*
X170670000Y-41588500D02*
X169361500Y-41588500D01*
X162580000Y-60360000D02*
X164060000Y-61840000D01*
X88701900Y-154571000D02*
X89251450Y-154021450D01*
X89251450Y-154021450D02*
X89251450Y-153738607D01*
X70548999Y-115711111D02*
X70548999Y-108090313D01*
X66040000Y-115570000D02*
X66941000Y-116471000D01*
X103310000Y-153670000D02*
X103760000Y-153670000D01*
X129540000Y-60960000D02*
X129540000Y-45285000D01*
X169361500Y-41588500D02*
X162580000Y-48370000D01*
X66941000Y-116471000D02*
X69789110Y-116471000D01*
X179990000Y-61840000D02*
X181470000Y-63320000D01*
X69789110Y-116471000D02*
X70548999Y-115711111D01*
X70548999Y-108090313D02*
X68066395Y-105607709D01*
X84260000Y-153670000D02*
X79341000Y-148751000D01*
X72390000Y-96520000D02*
X84710000Y-84200000D01*
X68066395Y-103383605D02*
X68580000Y-102870000D01*
X208269000Y-154571000D02*
X191021000Y-154571000D01*
X175840314Y-128850314D02*
X171070000Y-124080000D01*
X181470000Y-75030000D02*
X183910000Y-77470000D01*
X181470000Y-63320000D02*
X181470000Y-75030000D01*
X79341000Y-148751000D02*
X79341000Y-147071057D01*
X189230000Y-153670000D02*
X175840314Y-140280314D01*
X84710000Y-153670000D02*
X84260000Y-153670000D01*
X79341000Y-147071057D02*
X78339629Y-146069686D01*
%TO.N,Net-(D5-A)*%
X149860000Y-110110000D02*
X155320000Y-115570000D01*
X149860000Y-107950000D02*
X149860000Y-110110000D01*
%TO.N,Net-(D6-A)*%
X50015184Y-115570000D02*
X50290000Y-115570000D01*
X44450000Y-110004816D02*
X50015184Y-115570000D01*
X44450000Y-107950000D02*
X44450000Y-110004816D01*
%TO.N,Net-(D7-A)*%
X149860000Y-127000000D02*
X149860000Y-129160000D01*
X149860000Y-129160000D02*
X155320000Y-134620000D01*
%TO.N,row2*%
X193729686Y-87761000D02*
X195629000Y-87761000D01*
X163560000Y-48810000D02*
X163560000Y-59930000D01*
X62919686Y-144649000D02*
X64080314Y-144649000D01*
X62657686Y-144911000D02*
X62919686Y-144649000D01*
X88319686Y-144911000D02*
X93469000Y-144911000D01*
X170369000Y-108271000D02*
X171070000Y-107570000D01*
X66930000Y-97790000D02*
X83440000Y-97790000D01*
X208280000Y-134620000D02*
X198120000Y-124460000D01*
X99129000Y-72909000D02*
X99129000Y-69146000D01*
X185489000Y-88831000D02*
X187960000Y-86360000D01*
X190500000Y-83820000D02*
X190500000Y-84455000D01*
X88761000Y-107252314D02*
X84710000Y-103201314D01*
X205920000Y-77470000D02*
X209170000Y-77470000D01*
X84710000Y-103201314D02*
X84710000Y-96520000D01*
X190500000Y-84455000D02*
X192909000Y-86864000D01*
X81149000Y-145469686D02*
X81969686Y-144649000D01*
X103760000Y-134620000D02*
X103310000Y-134620000D01*
X103310000Y-134620000D02*
X88761000Y-120071000D01*
X50219686Y-144911000D02*
X62657686Y-144911000D01*
X163510000Y-59980000D02*
X164490000Y-60960000D01*
X81969686Y-144649000D02*
X88057686Y-144649000D01*
X171070000Y-107570000D02*
X171070000Y-96520000D01*
X85090000Y-96091530D02*
X85090000Y-96140000D01*
X46610000Y-141301314D02*
X50219686Y-144911000D01*
X83440000Y-97790000D02*
X84710000Y-96520000D01*
X103690000Y-77470000D02*
X99129000Y-72909000D01*
X209170000Y-134620000D02*
X208280000Y-134620000D01*
X170369000Y-109031000D02*
X170369000Y-108271000D01*
X64080314Y-144649000D02*
X64901000Y-145469686D01*
X203260000Y-74810000D02*
X205920000Y-77470000D01*
X188595000Y-118110000D02*
X184785000Y-114300000D01*
X192909000Y-86864000D02*
X192909000Y-86940314D01*
X203260000Y-62000000D02*
X203260000Y-74810000D01*
X163560000Y-59930000D02*
X163510000Y-59980000D01*
X88057686Y-144649000D02*
X88319686Y-144911000D01*
X65660000Y-96520000D02*
X66930000Y-97790000D01*
X85090000Y-96140000D02*
X84710000Y-96520000D01*
X164490000Y-60960000D02*
X202220000Y-60960000D01*
X186089000Y-98425000D02*
X187994000Y-96520000D01*
X170670000Y-44128500D02*
X168241500Y-44128500D01*
X104140000Y-64135000D02*
X128905000Y-64135000D01*
X46610000Y-134620000D02*
X46610000Y-141301314D01*
X104140000Y-77470000D02*
X103690000Y-77470000D01*
X99129000Y-69146000D02*
X104140000Y-64135000D01*
X88761000Y-120071000D02*
X88761000Y-107252314D01*
X195629000Y-87761000D02*
X205920000Y-77470000D01*
X184785000Y-114300000D02*
X184785000Y-99060000D01*
X85911500Y-95270030D02*
X85090000Y-96091530D01*
X189740000Y-96520000D02*
X185489000Y-92269000D01*
X168241500Y-44128500D02*
X163560000Y-48810000D01*
X185489000Y-92269000D02*
X185489000Y-88831000D01*
X187994000Y-96520000D02*
X189740000Y-96520000D01*
X93469000Y-144911000D02*
X103760000Y-134620000D01*
X64901000Y-145469686D02*
X81149000Y-145469686D01*
X202220000Y-60960000D02*
X203260000Y-62000000D01*
X192909000Y-86940314D02*
X193729686Y-87761000D01*
%TO.N,Net-(D8-A)*%
X44450000Y-129160000D02*
X49910000Y-134620000D01*
X44450000Y-127000000D02*
X44450000Y-129160000D01*
%TO.N,row3*%
X160020000Y-117689943D02*
X158149000Y-115818943D01*
X170380000Y-63570000D02*
X170380000Y-64058000D01*
X158149000Y-115818943D02*
X158149000Y-115321057D01*
X185489000Y-111389000D02*
X189670000Y-115570000D01*
X126165000Y-56715000D02*
X126165000Y-46990000D01*
X120650000Y-62230000D02*
X126165000Y-56715000D01*
X170869686Y-84959000D02*
X175840314Y-84959000D01*
X183664816Y-80010000D02*
X172720000Y-80010000D01*
X166439000Y-89389686D02*
X170869686Y-84959000D01*
X199457000Y-116471000D02*
X191021000Y-116471000D01*
X83820000Y-119380000D02*
X84710000Y-118490000D01*
X208720000Y-115570000D02*
X209170000Y-115570000D01*
X204539000Y-101151000D02*
X204539000Y-101600000D01*
X204539000Y-101600000D02*
X204539000Y-100884184D01*
X204539000Y-101600000D02*
X204539000Y-111389000D01*
X209170000Y-96520000D02*
X204539000Y-101151000D01*
X153095000Y-48895000D02*
X153095000Y-51435000D01*
X189670000Y-115570000D02*
X190120000Y-115570000D01*
X123190000Y-44015000D02*
X126165000Y-46990000D01*
X99129000Y-101151000D02*
X103760000Y-96520000D01*
X84710000Y-118490000D02*
X84710000Y-115570000D01*
X170369000Y-76769000D02*
X171070000Y-77470000D01*
X185489000Y-94607686D02*
X185489000Y-111389000D01*
X118029000Y-67391000D02*
X120650000Y-64770000D01*
X170380000Y-64058000D02*
X170369000Y-64069000D01*
X204539000Y-111389000D02*
X199457000Y-116471000D01*
X204539000Y-111389000D02*
X208720000Y-115570000D01*
X118029000Y-86901110D02*
X118029000Y-67391000D01*
X99129000Y-111389000D02*
X99129000Y-101151000D01*
X160020000Y-144780000D02*
X160020000Y-117689943D01*
X103760000Y-115570000D02*
X103310000Y-115570000D01*
X104661000Y-97421000D02*
X107509110Y-97421000D01*
X47891000Y-154571000D02*
X71489000Y-154571000D01*
X158149000Y-115321057D02*
X166439000Y-107031057D01*
X175840314Y-84959000D02*
X185489000Y-94607686D01*
X103310000Y-115570000D02*
X99129000Y-111389000D01*
X166439000Y-107031057D02*
X166439000Y-89389686D01*
X204539000Y-100884184D02*
X183664816Y-80010000D01*
X123190000Y-41275000D02*
X123190000Y-44015000D01*
X107509110Y-97421000D02*
X118029000Y-86901110D01*
X71489000Y-154571000D02*
X78740000Y-147320000D01*
X103760000Y-96520000D02*
X104661000Y-97421000D01*
X191021000Y-116471000D02*
X190120000Y-115570000D01*
X170369000Y-64069000D02*
X170369000Y-76769000D01*
X46990000Y-153670000D02*
X47891000Y-154571000D01*
%TO.N,Net-(D9-A)*%
X149860000Y-146050000D02*
X149860000Y-148210000D01*
X149860000Y-148210000D02*
X155320000Y-153670000D01*
%TO.N,Net-(D10-A)*%
X44450000Y-148104816D02*
X50015184Y-153670000D01*
X50015184Y-153670000D02*
X50290000Y-153670000D01*
X44450000Y-146050000D02*
X44450000Y-148104816D01*
%TO.N,Net-(D11-A)*%
X173693816Y-66033873D02*
X173693816Y-70039000D01*
X170131057Y-62969000D02*
X170628943Y-62969000D01*
X170628943Y-62969000D02*
X173693816Y-66033873D01*
X173693816Y-70039000D02*
X175071000Y-71416184D01*
X175071000Y-76769000D02*
X174370000Y-77470000D01*
X168910000Y-64190057D02*
X170131057Y-62969000D01*
X168910000Y-69850000D02*
X168910000Y-64190057D01*
X175071000Y-71416184D02*
X175071000Y-76769000D01*
%TO.N,Net-(D12-A)*%
X63500000Y-72010000D02*
X68960000Y-77470000D01*
X63500000Y-69850000D02*
X63500000Y-72010000D01*
%TO.N,Net-(D13-A)*%
X168910000Y-88900000D02*
X168910000Y-91060000D01*
X168910000Y-91060000D02*
X174370000Y-96520000D01*
%TO.N,Net-(D14-A)*%
X63500000Y-88900000D02*
X63500000Y-91060000D01*
X63500000Y-91060000D02*
X68960000Y-96520000D01*
%TO.N,Net-(D15-A)*%
X169545000Y-113665000D02*
X168910000Y-113030000D01*
X168910000Y-113030000D02*
X168910000Y-107950000D01*
X172465000Y-113665000D02*
X174370000Y-115570000D01*
X169545000Y-113665000D02*
X172465000Y-113665000D01*
%TO.N,Net-(D16-A)*%
X63500000Y-110490000D02*
X68580000Y-115570000D01*
X68580000Y-115570000D02*
X69340000Y-115570000D01*
X63500000Y-107950000D02*
X63500000Y-110490000D01*
%TO.N,Net-(D17-A)*%
X168910000Y-129160000D02*
X174370000Y-134620000D01*
X168910000Y-127000000D02*
X168910000Y-129160000D01*
%TO.N,Net-(D18-A)*%
X63500000Y-127000000D02*
X63500000Y-129160000D01*
X63500000Y-129160000D02*
X68960000Y-134620000D01*
%TO.N,Net-(D19-A)*%
X168910000Y-146050000D02*
X168910000Y-148210000D01*
X168910000Y-148210000D02*
X174370000Y-153670000D01*
%TO.N,Net-(D20-A)*%
X63500000Y-146050000D02*
X63500000Y-148104816D01*
X63500000Y-148104816D02*
X69065184Y-153670000D01*
X69065184Y-153670000D02*
X69340000Y-153670000D01*
%TO.N,Net-(D21-A)*%
X187960000Y-72010000D02*
X193420000Y-77470000D01*
X187960000Y-69850000D02*
X187960000Y-72010000D01*
%TO.N,Net-(D22-A)*%
X82550000Y-72010000D02*
X88010000Y-77470000D01*
X82550000Y-69850000D02*
X82550000Y-72010000D01*
%TO.N,Net-(D23-A)*%
X187960000Y-88900000D02*
X187960000Y-91440000D01*
X187960000Y-91440000D02*
X193040000Y-96520000D01*
%TO.N,Net-(D24-A)*%
X82550000Y-88900000D02*
X82550000Y-91060000D01*
X82550000Y-91060000D02*
X88010000Y-96520000D01*
%TO.N,Net-(D25-A)*%
X187960000Y-110110000D02*
X193420000Y-115570000D01*
X187960000Y-107950000D02*
X187960000Y-110110000D01*
%TO.N,Net-(D26-A)*%
X82550000Y-110110000D02*
X88010000Y-115570000D01*
X82550000Y-107950000D02*
X82550000Y-110110000D01*
%TO.N,Net-(D27-A)*%
X187960000Y-129160000D02*
X193420000Y-134620000D01*
X187960000Y-127000000D02*
X187960000Y-129160000D01*
%TO.N,Net-(D28-A)*%
X82550000Y-127000000D02*
X82550000Y-129160000D01*
X82550000Y-129160000D02*
X88010000Y-134620000D01*
%TO.N,Net-(D29-A)*%
X187960000Y-146050000D02*
X187960000Y-148210000D01*
X187960000Y-148210000D02*
X193420000Y-153670000D01*
%TO.N,Net-(D30-A)*%
X82550000Y-146050000D02*
X82550000Y-148210000D01*
X82550000Y-148210000D02*
X88010000Y-153670000D01*
%TO.N,Net-(D31-A)*%
X207010000Y-72010000D02*
X212470000Y-77470000D01*
X207010000Y-69850000D02*
X207010000Y-72010000D01*
%TO.N,Net-(D32-A)*%
X106680000Y-77470000D02*
X107440000Y-77470000D01*
X101600000Y-72390000D02*
X106680000Y-77470000D01*
X101600000Y-69850000D02*
X101600000Y-72390000D01*
%TO.N,Net-(D33-A)*%
X207010000Y-88900000D02*
X207010000Y-91060000D01*
X207010000Y-91060000D02*
X212470000Y-96520000D01*
%TO.N,Net-(D34-A)*%
X101600000Y-88900000D02*
X101600000Y-91060000D01*
X101600000Y-91060000D02*
X107060000Y-96520000D01*
%TO.N,Net-(D35-A)*%
X207010000Y-110110000D02*
X212470000Y-115570000D01*
X207010000Y-107950000D02*
X207010000Y-110110000D01*
%TO.N,Net-(D36-A)*%
X101600000Y-107950000D02*
X101600000Y-110110000D01*
X101600000Y-110110000D02*
X107060000Y-115570000D01*
%TO.N,Net-(D37-A)*%
X207010000Y-127000000D02*
X207010000Y-129160000D01*
X207010000Y-129160000D02*
X212470000Y-134620000D01*
%TO.N,Net-(D38-A)*%
X101600000Y-127000000D02*
X101600000Y-129160000D01*
X101600000Y-129160000D02*
X107060000Y-134620000D01*
%TO.N,Net-(D39-A)*%
X207010000Y-146050000D02*
X207010000Y-148210000D01*
X207010000Y-148210000D02*
X212470000Y-153670000D01*
%TO.N,Net-(D40-A)*%
X101600000Y-146050000D02*
X101600000Y-148210000D01*
X101600000Y-148210000D02*
X107060000Y-153670000D01*
%TO.N,Net-(D41-A)*%
X226060000Y-72010000D02*
X231520000Y-77470000D01*
X226060000Y-69850000D02*
X226060000Y-72010000D01*
%TO.N,Net-(D42-A)*%
X120500000Y-71904816D02*
X126065184Y-77470000D01*
X120500000Y-69850000D02*
X120500000Y-71904816D01*
X126065184Y-77470000D02*
X126110000Y-77470000D01*
%TO.N,Net-(D43-A)*%
X226060000Y-91060000D02*
X231520000Y-96520000D01*
X226060000Y-88900000D02*
X226060000Y-91060000D01*
%TO.N,Net-(D44-A)*%
X120650000Y-88900000D02*
X120650000Y-91060000D01*
X120650000Y-91060000D02*
X126110000Y-96520000D01*
%TO.N,Net-(D45-A)*%
X226060000Y-110110000D02*
X231520000Y-115570000D01*
X226060000Y-107950000D02*
X226060000Y-110110000D01*
%TO.N,Net-(D46-A)*%
X120650000Y-107950000D02*
X120650000Y-110110000D01*
X120650000Y-110110000D02*
X126110000Y-115570000D01*
%TO.N,Net-(D47-A)*%
X226060000Y-127000000D02*
X226060000Y-129160000D01*
X226060000Y-129160000D02*
X231520000Y-134620000D01*
%TO.N,Net-(D48-A)*%
X120650000Y-127000000D02*
X120650000Y-129160000D01*
X120650000Y-129160000D02*
X126110000Y-134620000D01*
%TO.N,Net-(D49-A)*%
X226060000Y-148210000D02*
X231520000Y-153670000D01*
X226060000Y-146050000D02*
X226060000Y-148210000D01*
%TO.N,Net-(D50-A)*%
X120650000Y-146050000D02*
X120650000Y-148210000D01*
X120650000Y-148210000D02*
X126110000Y-153670000D01*
%TO.N,Net-(J1-D+)*%
X218266000Y-47871000D02*
X222196000Y-43941000D01*
X219100400Y-50800000D02*
X218346000Y-50800000D01*
X218346000Y-50800000D02*
X218266000Y-50720000D01*
X231140000Y-37846000D02*
X231140000Y-38608000D01*
X231360000Y-38828000D02*
X231360000Y-41540000D01*
X218266000Y-50720000D02*
X218266000Y-47871000D01*
X231140000Y-38608000D02*
X231360000Y-38828000D01*
%TO.N,Net-(J1-D-)*%
X232156000Y-38862000D02*
X233360000Y-40066000D01*
X233360000Y-40066000D02*
X233360000Y-41540000D01*
X219100400Y-50292000D02*
X219100400Y-48107600D01*
X219100400Y-48107600D02*
X223012000Y-44196000D01*
%TO.N,Net-(J2-D+)*%
X46900000Y-41540000D02*
X46900000Y-43895200D01*
X53550800Y-50546000D02*
X54305200Y-50546000D01*
X46900000Y-43895200D02*
X53550800Y-50546000D01*
%TO.N,Net-(J2-D-)*%
X48900000Y-44632800D02*
X54305200Y-50038000D01*
X48900000Y-41540000D02*
X48900000Y-44632800D01*
%TO.N,Net-(J3-D+)*%
X217764530Y-51816000D02*
X219100400Y-51816000D01*
X217594265Y-51645735D02*
X217764530Y-51816000D01*
%TO.N,Net-(J3-D-)*%
X217383530Y-50586470D02*
X218105060Y-51308000D01*
X218105060Y-51308000D02*
X219100400Y-51308000D01*
%TO.N,Net-(J4-D+)*%
X53550800Y-51562000D02*
X54305200Y-51562000D01*
X69200000Y-43830000D02*
X63500000Y-49530000D01*
X52070000Y-58420000D02*
X50800000Y-57150000D01*
X69200000Y-41540000D02*
X69200000Y-43830000D01*
X50800000Y-54312800D02*
X53550800Y-51562000D01*
X63500000Y-49530000D02*
X63500000Y-57150000D01*
X50800000Y-57150000D02*
X50800000Y-54312800D01*
X63500000Y-57150000D02*
X62230000Y-58420000D01*
X62230000Y-58420000D02*
X52070000Y-58420000D01*
%TO.N,Net-(J4-D-)*%
X53491700Y-51054000D02*
X50399000Y-54146700D01*
X50399000Y-57316100D02*
X51903900Y-58821000D01*
X51903900Y-58821000D02*
X62396100Y-58821000D01*
X54305200Y-51054000D02*
X53491700Y-51054000D01*
X71200000Y-50017100D02*
X71200000Y-41540000D01*
X50399000Y-54146700D02*
X50399000Y-57316100D01*
X62396100Y-58821000D02*
X71200000Y-50017100D01*
%TO.N,Net-(P1-D-)*%
X192410000Y-30738600D02*
X192410000Y-29811000D01*
X192227200Y-30921400D02*
X192410000Y-30738600D01*
X223008265Y-49432135D02*
X223008265Y-46478265D01*
X222961200Y-49479200D02*
X223008265Y-49432135D01*
%TO.N,Net-(P1-D+)*%
X191643000Y-31521400D02*
X191626200Y-31504600D01*
X191626200Y-30465800D02*
X191910000Y-30182000D01*
X191910000Y-30182000D02*
X191910000Y-29811000D01*
X191626200Y-31504600D02*
X191626200Y-30465800D01*
X222453200Y-47193200D02*
X222373265Y-47113265D01*
X222453200Y-49479200D02*
X222453200Y-47193200D01*
%TO.N,Net-(P2-D-)*%
X64726800Y-41910000D02*
X64770000Y-41910000D01*
X84449100Y-33020000D02*
X87400000Y-30069100D01*
X87400000Y-30069100D02*
X87400000Y-29811000D01*
X73660000Y-33020000D02*
X84449100Y-33020000D01*
X58166000Y-48470800D02*
X64726800Y-41910000D01*
X58166000Y-49225200D02*
X58166000Y-48470800D01*
%TO.N,Net-(P2-D+)*%
X58420000Y-46990000D02*
X59690000Y-45720000D01*
X74930000Y-31750000D02*
X85152000Y-31750000D01*
X86900000Y-30002000D02*
X86900000Y-29811000D01*
X57658000Y-47752000D02*
X58420000Y-46990000D01*
X85152000Y-31750000D02*
X86900000Y-30002000D01*
X57658000Y-49225200D02*
X57658000Y-47752000D01*
%TO.N,col0*%
X50800000Y-143510000D02*
X50800000Y-124460000D01*
X151693000Y-62793000D02*
X156210000Y-67310000D01*
X50800000Y-67310000D02*
X50800000Y-84378686D01*
X152213500Y-33968500D02*
X151892000Y-34290000D01*
X151693000Y-36780500D02*
X151693000Y-62793000D01*
X156210000Y-124460000D02*
X156210000Y-105410000D01*
X147320000Y-96520000D02*
X147320000Y-69850000D01*
X50800000Y-124460000D02*
X51899999Y-123360001D01*
X149860000Y-67310000D02*
X156210000Y-67310000D01*
X52201000Y-86940314D02*
X50800000Y-88341314D01*
X156210000Y-105410000D02*
X147320000Y-96520000D01*
X232410000Y-154130110D02*
X231568110Y-154972000D01*
X51899999Y-106509999D02*
X50800000Y-105410000D01*
X167672000Y-154972000D02*
X156210000Y-143510000D01*
X154505000Y-33968500D02*
X152213500Y-33968500D01*
X51899999Y-123360001D02*
X51899999Y-106509999D01*
X52201000Y-85779686D02*
X52201000Y-86940314D01*
X147320000Y-69850000D02*
X149860000Y-67310000D01*
X156210000Y-143510000D02*
X127000000Y-143510000D01*
X154505000Y-33968500D02*
X151693000Y-36780500D01*
X232410000Y-143510000D02*
X232410000Y-154130110D01*
X50800000Y-84378686D02*
X52201000Y-85779686D01*
X231568110Y-154972000D02*
X167672000Y-154972000D01*
X156210000Y-143510000D02*
X156210000Y-124460000D01*
X50800000Y-88341314D02*
X50800000Y-105410000D01*
%TO.N,col3*%
X135890000Y-31115000D02*
X134620000Y-29845000D01*
X87259000Y-115386100D02*
X83563900Y-111691000D01*
X41910000Y-89458686D02*
X41910000Y-149940110D01*
X125095000Y-29845000D02*
X123190000Y-31750000D01*
X156210000Y-39883500D02*
X156210000Y-32550003D01*
X134620000Y-29845000D02*
X130810000Y-29845000D01*
X113867500Y-31952500D02*
X113665000Y-31750000D01*
X61029000Y-89389686D02*
X84509686Y-65909000D01*
X46941890Y-154972000D02*
X88868000Y-154972000D01*
X150495000Y-30010000D02*
X150330000Y-29845000D01*
X213360000Y-67310000D02*
X213360000Y-86360000D01*
X87259000Y-122819000D02*
X87259000Y-115386100D01*
X142240000Y-30480000D02*
X142240000Y-34290000D01*
X136525000Y-34925000D02*
X136310058Y-34925000D01*
X156210000Y-43293500D02*
X156210000Y-62230000D01*
X135890000Y-34504942D02*
X135890000Y-31115000D01*
X89480314Y-65909000D02*
X107950000Y-84378686D01*
X150330000Y-29845000D02*
X142875000Y-29845000D01*
X79480890Y-111691000D02*
X61029000Y-93239110D01*
X112336531Y-32420000D02*
X112336531Y-34468527D01*
X123190000Y-31750000D02*
X122987500Y-31952500D01*
X142240000Y-34290000D02*
X142240000Y-34504942D01*
X111610204Y-35194854D02*
X111610204Y-35555711D01*
X83563900Y-111691000D02*
X79480890Y-111691000D01*
X50800000Y-86360000D02*
X45008686Y-86360000D01*
X112336531Y-34468527D02*
X111610204Y-35194854D01*
X156210000Y-32550003D02*
X156845000Y-31915003D01*
X142875000Y-29845000D02*
X142240000Y-30480000D01*
X141819942Y-34925000D02*
X136525000Y-34925000D01*
X109049999Y-68409999D02*
X109049999Y-85260001D01*
X154505000Y-41588500D02*
X156210000Y-39883500D01*
X136310058Y-34925000D02*
X135890000Y-34504942D01*
X130810000Y-29845000D02*
X125095000Y-29845000D01*
X61029000Y-93239110D02*
X61029000Y-89389686D01*
X107950000Y-84378686D02*
X107950000Y-86360000D01*
X122987500Y-31952500D02*
X113867500Y-31952500D01*
X45008686Y-86360000D02*
X41910000Y-89458686D01*
X154505000Y-41588500D02*
X156210000Y-43293500D01*
X88868000Y-154972000D02*
X93980000Y-149860000D01*
X84509686Y-65909000D02*
X89480314Y-65909000D01*
X107950000Y-67310000D02*
X109049999Y-68409999D01*
X156210000Y-62230000D02*
X158750000Y-64770000D01*
X142240000Y-34504942D02*
X141819942Y-34925000D01*
X109049999Y-85260001D02*
X107950000Y-86360000D01*
X88900000Y-124460000D02*
X87259000Y-122819000D01*
X194310000Y-143510000D02*
X194310000Y-124460000D01*
X88900000Y-143510000D02*
X88900000Y-124460000D01*
X41910000Y-149940110D02*
X46941890Y-154972000D01*
%TO.N,col1*%
X130409000Y-143109000D02*
X153670000Y-143109000D01*
X127000000Y-124460000D02*
X127000000Y-139700000D01*
X132715000Y-86995000D02*
X135147529Y-84562471D01*
X176661000Y-123059000D02*
X175260000Y-124460000D01*
X175260000Y-86360000D02*
X175260000Y-105410000D01*
X66040000Y-82550000D02*
X60628000Y-87962000D01*
X111760000Y-47557100D02*
X114300000Y-50097100D01*
X114300000Y-60960000D02*
X113030000Y-62230000D01*
X152094000Y-60654000D02*
X152400000Y-60960000D01*
X152400000Y-60960000D02*
X158750000Y-67310000D01*
X127000000Y-139700000D02*
X130409000Y-143109000D01*
X70949999Y-123360001D02*
X70949999Y-106509999D01*
X110000000Y-36830000D02*
X111760000Y-38590000D01*
X111760000Y-38590000D02*
X111760000Y-47557100D01*
X70949999Y-106509999D02*
X69850000Y-105410000D01*
X232410000Y-124460000D02*
X231009000Y-123059000D01*
X69850000Y-124460000D02*
X70949999Y-123360001D01*
X132715000Y-97790000D02*
X132715000Y-86995000D01*
X154505000Y-36508500D02*
X152721500Y-36508500D01*
X69850000Y-102870000D02*
X69850000Y-105410000D01*
X60628000Y-87962000D02*
X60628000Y-93648000D01*
X60628000Y-93648000D02*
X69850000Y-102870000D01*
X152721500Y-36508500D02*
X152094000Y-37136000D01*
X175260000Y-105410000D02*
X175260000Y-124460000D01*
X152094000Y-37136000D02*
X152094000Y-40640000D01*
X74930000Y-62230000D02*
X69850000Y-67310000D01*
X152094000Y-40640000D02*
X152094000Y-60654000D01*
X114300000Y-50097100D02*
X114300000Y-60960000D01*
X231009000Y-123059000D02*
X176661000Y-123059000D01*
X113030000Y-62230000D02*
X74930000Y-62230000D01*
%TO.N,col2*%
X232410000Y-105410000D02*
X231009000Y-104009000D01*
X152495000Y-41058500D02*
X152495000Y-60205057D01*
X88900000Y-67310000D02*
X88900000Y-86360000D01*
X85461000Y-135219110D02*
X85461000Y-134020890D01*
X77170110Y-143510000D02*
X85461000Y-135219110D01*
X79314790Y-117535210D02*
X83820000Y-113030000D01*
X193941000Y-78371000D02*
X194310000Y-78002000D01*
X80782530Y-130741000D02*
X79314790Y-129273260D01*
X154505000Y-39048500D02*
X152495000Y-41058500D01*
X161290000Y-69000057D02*
X161290000Y-74712900D01*
X201930000Y-105410000D02*
X194310000Y-105410000D01*
X194310000Y-78740000D02*
X193941000Y-78371000D01*
X203200000Y-104140000D02*
X201930000Y-105410000D01*
X88900000Y-86360000D02*
X88900000Y-105410000D01*
X133985000Y-98425000D02*
X141605000Y-98425000D01*
X194310000Y-78002000D02*
X194310000Y-67310000D01*
X152495000Y-60205057D02*
X153777472Y-61487528D01*
X153318440Y-74821450D02*
X151269000Y-76870890D01*
X146720000Y-93310000D02*
X146720000Y-78105000D01*
X69850000Y-143510000D02*
X77170110Y-143510000D01*
X151269000Y-78069110D02*
X151570890Y-78371000D01*
X79314790Y-129273260D02*
X79314790Y-117535210D01*
X161181450Y-74821450D02*
X153318440Y-74821450D01*
X85461000Y-134020890D02*
X82181110Y-130741000D01*
X161290000Y-74712900D02*
X161181450Y-74821450D01*
X141605000Y-98425000D02*
X146720000Y-93310000D01*
X231009000Y-104009000D02*
X205871000Y-104009000D01*
X151570890Y-78371000D02*
X193941000Y-78371000D01*
X127000000Y-105410000D02*
X133985000Y-98425000D01*
X151269000Y-76870890D02*
X151269000Y-78069110D01*
X194310000Y-86360000D02*
X194310000Y-78740000D01*
X205871000Y-104009000D02*
X205740000Y-104140000D01*
X153777472Y-61487528D02*
X161290000Y-69000057D01*
X82181110Y-130741000D02*
X80782530Y-130741000D01*
%TO.N,col4*%
X121208686Y-86360000D02*
X127000000Y-86360000D01*
X107950000Y-124460000D02*
X107950000Y-105410000D01*
X133350000Y-80010000D02*
X127000000Y-86360000D01*
X107950000Y-143510000D02*
X107950000Y-124460000D01*
X232410000Y-67310000D02*
X232410000Y-86360000D01*
X133350000Y-66040000D02*
X133350000Y-80010000D01*
X126056320Y-78873790D02*
X127949999Y-76980111D01*
X122059000Y-76870890D02*
X122360890Y-76569000D01*
X213360000Y-143510000D02*
X213360000Y-124460000D01*
X122059000Y-81419000D02*
X122059000Y-76870890D01*
X122360890Y-76569000D02*
X123259110Y-76569000D01*
X125563900Y-78873790D02*
X126056320Y-78873790D01*
X155575000Y-50165000D02*
X155575000Y-51435000D01*
X107950000Y-105410000D02*
X107950000Y-99618686D01*
X127949999Y-68409999D02*
X126850000Y-67310000D01*
X127000000Y-86360000D02*
X122059000Y-81419000D01*
X107950000Y-99618686D02*
X121208686Y-86360000D01*
X123259110Y-76569000D02*
X125563900Y-78873790D01*
X127949999Y-76980111D02*
X127949999Y-68409999D01*
X155575000Y-51435000D02*
X154305000Y-52705000D01*
%TO.N,/left/vbat*%
X158115000Y-56515000D02*
X158750000Y-57150000D01*
X158115000Y-39448500D02*
X158115000Y-56515000D01*
%TO.N,/right/vbat*%
X113610000Y-39770000D02*
X113610000Y-48840000D01*
X113610000Y-48840000D02*
X120650000Y-55880000D01*
%TO.N,data0*%
X144384000Y-41593106D02*
X147240894Y-44450000D01*
X151292000Y-43018000D02*
X151292000Y-33020000D01*
X144384000Y-37226000D02*
X144384000Y-41593106D01*
X152883500Y-31428500D02*
X154505000Y-31428500D01*
X147240894Y-44450000D02*
X149860000Y-44450000D01*
X144384000Y-37226000D02*
X142718000Y-35560000D01*
X148590000Y-33020000D02*
X144384000Y-37226000D01*
X142718000Y-35560000D02*
X135255000Y-35560000D01*
X149860000Y-44450000D02*
X151292000Y-43018000D01*
X151292000Y-33020000D02*
X152883500Y-31428500D01*
X135255000Y-35560000D02*
X132715000Y-33020000D01*
%TD*%
M02*
