%TF.GenerationSoftware,KiCad,Pcbnew,9.0.2*%
%TF.CreationDate,2025-10-05T12:30:13-05:00*%
%TF.ProjectId,keeb,6b656562-2e6b-4696-9361-645f70636258,rev?*%
%TF.SameCoordinates,Original*%
%TF.FileFunction,Soldermask,Top*%
%TF.FilePolarity,Negative*%
%FSLAX46Y46*%
G04 Gerber Fmt 4.6, Leading zero omitted, Abs format (unit mm)*
G04 Created by KiCad (PCBNEW 9.0.2) date 2025-10-05 12:30:13*
%MOMM*%
%LPD*%
G01*
G04 APERTURE LIST*
G04 Aperture macros list*
%AMRoundRect*
0 Rectangle with rounded corners*
0 $1 Rounding radius*
0 $2 $3 $4 $5 $6 $7 $8 $9 X,Y pos of 4 corners*
0 Add a 4 corners polygon primitive as box body*
4,1,4,$2,$3,$4,$5,$6,$7,$8,$9,$2,$3,0*
0 Add four circle primitives for the rounded corners*
1,1,$1+$1,$2,$3*
1,1,$1+$1,$4,$5*
1,1,$1+$1,$6,$7*
1,1,$1+$1,$8,$9*
0 Add four rect primitives between the rounded corners*
20,1,$1+$1,$2,$3,$4,$5,0*
20,1,$1+$1,$4,$5,$6,$7,0*
20,1,$1+$1,$6,$7,$8,$9,0*
20,1,$1+$1,$8,$9,$2,$3,0*%
G04 Aperture macros list end*
%ADD10C,0.000000*%
%ADD11R,1.066800X0.254000*%
%ADD12R,0.254000X1.066800*%
%ADD13C,1.700000*%
%ADD14C,4.000000*%
%ADD15C,2.200000*%
%ADD16C,3.000000*%
%ADD17RoundRect,0.225000X-0.225000X-0.375000X0.225000X-0.375000X0.225000X0.375000X-0.225000X0.375000X0*%
%ADD18C,4.800000*%
%ADD19RoundRect,0.325000X0.325000X1.175000X-0.325000X1.175000X-0.325000X-1.175000X0.325000X-1.175000X0*%
%ADD20O,1.200000X2.900000*%
%ADD21RoundRect,0.250000X0.750000X0.750000X-0.750000X0.750000X-0.750000X-0.750000X0.750000X-0.750000X0*%
%ADD22C,2.000000*%
%ADD23RoundRect,0.250000X-0.750000X-0.750000X0.750000X-0.750000X0.750000X0.750000X-0.750000X0.750000X0*%
%ADD24C,0.500000*%
%ADD25RoundRect,0.525400X-0.900400X-0.525400X0.900400X-0.525400X0.900400X0.525400X-0.900400X0.525400X0*%
%ADD26RoundRect,0.775400X0.775400X0.775400X-0.775400X0.775400X-0.775400X-0.775400X0.775400X-0.775400X0*%
%ADD27RoundRect,0.300400X-0.300400X1.000400X-0.300400X-1.000400X0.300400X-1.000400X0.300400X1.000400X0*%
%ADD28R,0.380000X1.000000*%
%ADD29R,0.700000X1.150000*%
G04 APERTURE END LIST*
D10*
%TO.C,U4*%
G36*
X55768900Y-54063900D02*
G01*
X55156100Y-54063900D01*
X55156100Y-50076100D01*
X55768900Y-50076100D01*
X55768900Y-54063900D01*
G37*
G36*
X59143900Y-50688900D02*
G01*
X55156100Y-50688900D01*
X55156100Y-50076100D01*
X59143900Y-50076100D01*
X59143900Y-50688900D01*
G37*
G36*
X59143900Y-51476300D02*
G01*
X55156100Y-51476300D01*
X55156100Y-51088900D01*
X59143900Y-51088900D01*
X59143900Y-51476300D01*
G37*
G36*
X59143900Y-52263700D02*
G01*
X55156100Y-52263700D01*
X55156100Y-51876300D01*
X59143900Y-51876300D01*
X59143900Y-52263700D01*
G37*
G36*
X59143900Y-53051100D02*
G01*
X55156100Y-53051100D01*
X55156100Y-52663700D01*
X59143900Y-52663700D01*
X59143900Y-53051100D01*
G37*
G36*
X59143900Y-54063900D02*
G01*
X55156100Y-54063900D01*
X55156100Y-53451100D01*
X59143900Y-53451100D01*
X59143900Y-54063900D01*
G37*
G36*
X56556300Y-54063900D02*
G01*
X56168900Y-54063900D01*
X56168900Y-50076100D01*
X56556300Y-50076100D01*
X56556300Y-54063900D01*
G37*
G36*
X57343700Y-54063900D02*
G01*
X56956300Y-54063900D01*
X56956300Y-50076100D01*
X57343700Y-50076100D01*
X57343700Y-54063900D01*
G37*
G36*
X58131100Y-54063900D02*
G01*
X57743700Y-54063900D01*
X57743700Y-50076100D01*
X58131100Y-50076100D01*
X58131100Y-54063900D01*
G37*
G36*
X59143900Y-54063900D02*
G01*
X58531100Y-54063900D01*
X58531100Y-50076100D01*
X59143900Y-50076100D01*
X59143900Y-54063900D01*
G37*
%TO.C,U3*%
G36*
X220564100Y-54317900D02*
G01*
X219951300Y-54317900D01*
X219951300Y-50330100D01*
X220564100Y-50330100D01*
X220564100Y-54317900D01*
G37*
G36*
X223939100Y-50942900D02*
G01*
X219951300Y-50942900D01*
X219951300Y-50330100D01*
X223939100Y-50330100D01*
X223939100Y-50942900D01*
G37*
G36*
X223939100Y-51730300D02*
G01*
X219951300Y-51730300D01*
X219951300Y-51342900D01*
X223939100Y-51342900D01*
X223939100Y-51730300D01*
G37*
G36*
X223939100Y-52517700D02*
G01*
X219951300Y-52517700D01*
X219951300Y-52130300D01*
X223939100Y-52130300D01*
X223939100Y-52517700D01*
G37*
G36*
X223939100Y-53305100D02*
G01*
X219951300Y-53305100D01*
X219951300Y-52917700D01*
X223939100Y-52917700D01*
X223939100Y-53305100D01*
G37*
G36*
X223939100Y-54317900D02*
G01*
X219951300Y-54317900D01*
X219951300Y-53705100D01*
X223939100Y-53705100D01*
X223939100Y-54317900D01*
G37*
G36*
X221351500Y-54317900D02*
G01*
X220964100Y-54317900D01*
X220964100Y-50330100D01*
X221351500Y-50330100D01*
X221351500Y-54317900D01*
G37*
G36*
X222138900Y-54317900D02*
G01*
X221751500Y-54317900D01*
X221751500Y-50330100D01*
X222138900Y-50330100D01*
X222138900Y-54317900D01*
G37*
G36*
X222926300Y-54317900D02*
G01*
X222538900Y-54317900D01*
X222538900Y-50330100D01*
X222926300Y-50330100D01*
X222926300Y-54317900D01*
G37*
G36*
X223939100Y-54317900D02*
G01*
X223326300Y-54317900D01*
X223326300Y-50330100D01*
X223939100Y-50330100D01*
X223939100Y-54317900D01*
G37*
%TD*%
D11*
%TO.C,U4*%
X54305200Y-50038000D03*
X54305200Y-50546000D03*
X54305200Y-51054000D03*
X54305200Y-51562000D03*
X54305200Y-52070000D03*
X54305200Y-52578000D03*
X54305200Y-53086000D03*
X54305200Y-53594000D03*
X54305200Y-54102000D03*
D12*
X55118000Y-54914800D03*
X55626000Y-54914800D03*
X56134000Y-54914800D03*
X56642000Y-54914800D03*
X57150000Y-54914800D03*
X57658000Y-54914800D03*
X58166000Y-54914800D03*
X58674000Y-54914800D03*
X59182000Y-54914800D03*
D11*
X59994800Y-54102000D03*
X59994800Y-53594000D03*
X59994800Y-53086000D03*
X59994800Y-52578000D03*
X59994800Y-52070000D03*
X59994800Y-51562000D03*
X59994800Y-51054000D03*
X59994800Y-50546000D03*
X59994800Y-50038000D03*
D12*
X59182000Y-49225200D03*
X58674000Y-49225200D03*
X58166000Y-49225200D03*
X57658000Y-49225200D03*
X57150000Y-49225200D03*
X56642000Y-49225200D03*
X56134000Y-49225200D03*
X55626000Y-49225200D03*
X55118000Y-49225200D03*
%TD*%
D13*
%TO.C,SW43*%
X224790000Y-91440000D03*
D14*
X229870000Y-91440000D03*
D13*
X234950000Y-91440000D03*
D15*
X232410000Y-86360000D03*
X226060000Y-88900000D03*
%TD*%
D13*
%TO.C,SW17*%
X167640000Y-129540000D03*
D14*
X172720000Y-129540000D03*
D13*
X177800000Y-129540000D03*
D15*
X175260000Y-124460000D03*
X168910000Y-127000000D03*
%TD*%
D13*
%TO.C,SW28*%
X81280000Y-129540000D03*
D14*
X86360000Y-129540000D03*
D13*
X91440000Y-129540000D03*
D15*
X88900000Y-124460000D03*
X82550000Y-127000000D03*
%TD*%
D13*
%TO.C,SW33*%
X205740000Y-91440000D03*
D14*
X210820000Y-91440000D03*
D13*
X215900000Y-91440000D03*
D15*
X213360000Y-86360000D03*
X207010000Y-88900000D03*
%TD*%
D16*
%TO.C,TP2*%
X120650000Y-55880000D03*
%TD*%
D13*
%TO.C,SW46*%
X119380000Y-110490000D03*
D14*
X124460000Y-110490000D03*
D13*
X129540000Y-110490000D03*
D15*
X127000000Y-105410000D03*
X120650000Y-107950000D03*
%TD*%
D14*
%TO.C,TP8*%
X132715000Y-40640000D03*
%TD*%
D17*
%TO.C,D26*%
X84710000Y-115570000D03*
X88010000Y-115570000D03*
%TD*%
D13*
%TO.C,SW2*%
X43180000Y-72390000D03*
D14*
X48260000Y-72390000D03*
D13*
X53340000Y-72390000D03*
D15*
X50800000Y-67310000D03*
X44450000Y-69850000D03*
%TD*%
D17*
%TO.C,D7*%
X152020000Y-134620000D03*
X155320000Y-134620000D03*
%TD*%
%TO.C,D19*%
X171070000Y-153670000D03*
X174370000Y-153670000D03*
%TD*%
D13*
%TO.C,SW36*%
X100330000Y-110490000D03*
D14*
X105410000Y-110490000D03*
D13*
X110490000Y-110490000D03*
D15*
X107950000Y-105410000D03*
X101600000Y-107950000D03*
%TD*%
D17*
%TO.C,D27*%
X190120000Y-134620000D03*
X193420000Y-134620000D03*
%TD*%
D13*
%TO.C,SW13*%
X167640000Y-91440000D03*
D14*
X172720000Y-91440000D03*
D13*
X177800000Y-91440000D03*
D15*
X175260000Y-86360000D03*
X168910000Y-88900000D03*
%TD*%
D17*
%TO.C,D22*%
X84710000Y-77470000D03*
X88010000Y-77470000D03*
%TD*%
%TO.C,D31*%
X209170000Y-77470000D03*
X212470000Y-77470000D03*
%TD*%
%TO.C,D18*%
X65660000Y-134620000D03*
X68960000Y-134620000D03*
%TD*%
D18*
%TO.C,H2*%
X102870000Y-33020000D03*
%TD*%
D17*
%TO.C,D46*%
X122810000Y-115570000D03*
X126110000Y-115570000D03*
%TD*%
D19*
%TO.C,J2*%
X51400000Y-41800000D03*
X48900000Y-41800000D03*
X46900000Y-41800000D03*
X44400000Y-41800000D03*
D20*
X54300000Y-38100000D03*
X41500000Y-38100000D03*
%TD*%
D17*
%TO.C,D50*%
X122810000Y-153670000D03*
X126110000Y-153670000D03*
%TD*%
%TO.C,D34*%
X103760000Y-96520000D03*
X107060000Y-96520000D03*
%TD*%
D18*
%TO.C,H3*%
X237490000Y-57150000D03*
%TD*%
D21*
%TO.C,C3*%
X200540000Y-46990000D03*
D22*
X185540000Y-46990000D03*
%TD*%
D17*
%TO.C,D5*%
X152020000Y-115570000D03*
X155320000Y-115570000D03*
%TD*%
D14*
%TO.C,TP7*%
X146685000Y-40640000D03*
%TD*%
D16*
%TO.C,TP3*%
X167640000Y-57150000D03*
%TD*%
D17*
%TO.C,D10*%
X46990000Y-153670000D03*
X50290000Y-153670000D03*
%TD*%
D18*
%TO.C,H8*%
X38608000Y-156972000D03*
%TD*%
D17*
%TO.C,D9*%
X152020000Y-153670000D03*
X155320000Y-153670000D03*
%TD*%
%TO.C,D49*%
X228220000Y-153670000D03*
X231520000Y-153670000D03*
%TD*%
%TO.C,D41*%
X228220000Y-77470000D03*
X231520000Y-77470000D03*
%TD*%
%TO.C,D40*%
X103760000Y-153670000D03*
X107060000Y-153670000D03*
%TD*%
D13*
%TO.C,SW44*%
X119380000Y-91440000D03*
D14*
X124460000Y-91440000D03*
D13*
X129540000Y-91440000D03*
D15*
X127000000Y-86360000D03*
X120650000Y-88900000D03*
%TD*%
D17*
%TO.C,D33*%
X209170000Y-96520000D03*
X212470000Y-96520000D03*
%TD*%
D13*
%TO.C,SW47*%
X224790000Y-129540000D03*
D14*
X229870000Y-129540000D03*
D13*
X234950000Y-129540000D03*
D15*
X232410000Y-124460000D03*
X226060000Y-127000000D03*
%TD*%
D18*
%TO.C,H1*%
X177800000Y-33020000D03*
%TD*%
D13*
%TO.C,SW18*%
X62230000Y-129540000D03*
D14*
X67310000Y-129540000D03*
D13*
X72390000Y-129540000D03*
D15*
X69850000Y-124460000D03*
X63500000Y-127000000D03*
%TD*%
D13*
%TO.C,SW32*%
X100330000Y-72390000D03*
D14*
X105410000Y-72390000D03*
D13*
X110490000Y-72390000D03*
D15*
X107950000Y-67310000D03*
X101600000Y-69850000D03*
%TD*%
D17*
%TO.C,D11*%
X171070000Y-77470000D03*
X174370000Y-77470000D03*
%TD*%
%TO.C,D13*%
X171070000Y-96520000D03*
X174370000Y-96520000D03*
%TD*%
D23*
%TO.C,C2*%
X80130000Y-48260000D03*
D22*
X95130000Y-48260000D03*
%TD*%
D13*
%TO.C,SW5*%
X148590000Y-110490000D03*
D14*
X153670000Y-110490000D03*
D13*
X158750000Y-110490000D03*
D15*
X156210000Y-105410000D03*
X149860000Y-107950000D03*
%TD*%
D17*
%TO.C,D37*%
X209170000Y-134620000D03*
X212470000Y-134620000D03*
%TD*%
%TO.C,D23*%
X189740000Y-96520000D03*
X193040000Y-96520000D03*
%TD*%
D13*
%TO.C,SW26*%
X81280000Y-110490000D03*
D14*
X86360000Y-110490000D03*
D13*
X91440000Y-110490000D03*
D15*
X88900000Y-105410000D03*
X82550000Y-107950000D03*
%TD*%
D16*
%TO.C,TP4*%
X111760000Y-55880000D03*
%TD*%
D24*
%TO.C,H10*%
X136605000Y-152400000D03*
X141605000Y-152400000D03*
X136605000Y-151650000D03*
X136605000Y-151650000D03*
X141605000Y-151650000D03*
X141605000Y-151650000D03*
X136605000Y-150900000D03*
X141605000Y-150900000D03*
X136605000Y-150150000D03*
X141605000Y-150150000D03*
X136605000Y-149400000D03*
X141605000Y-149400000D03*
X136605000Y-148650000D03*
X141605000Y-148650000D03*
X136605000Y-147900000D03*
X141605000Y-147900000D03*
X136605000Y-147150000D03*
X141605000Y-147150000D03*
X136605000Y-146400000D03*
X141605000Y-146400000D03*
X136605000Y-145650000D03*
X141605000Y-145650000D03*
X136605000Y-144900000D03*
X141605000Y-144900000D03*
%TD*%
D17*
%TO.C,D25*%
X190120000Y-115570000D03*
X193420000Y-115570000D03*
%TD*%
D18*
%TO.C,H7*%
X144780000Y-120015000D03*
%TD*%
D13*
%TO.C,SW37*%
X205740000Y-129540000D03*
D14*
X210820000Y-129540000D03*
D13*
X215900000Y-129540000D03*
D15*
X213360000Y-124460000D03*
X207010000Y-127000000D03*
%TD*%
D17*
%TO.C,D20*%
X66040000Y-153670000D03*
X69340000Y-153670000D03*
%TD*%
D25*
%TO.C,U1*%
X154505000Y-31428500D03*
X154505000Y-33968500D03*
X154505000Y-36508500D03*
X154505000Y-39048500D03*
X154505000Y-41588500D03*
X154505000Y-44128500D03*
X154505000Y-46668500D03*
X170670000Y-46668500D03*
X170670000Y-44128500D03*
X170670000Y-41588500D03*
X170670000Y-39048500D03*
X170670000Y-36508500D03*
X170670000Y-33968500D03*
X170670000Y-31428500D03*
D26*
X158115000Y-39448500D03*
X158115000Y-36048500D03*
D27*
X166370000Y-48285400D03*
X168275000Y-48285400D03*
D13*
X161290000Y-30480000D03*
X163830000Y-30480000D03*
X161290000Y-33020000D03*
X163830000Y-33020000D03*
%TD*%
D17*
%TO.C,D36*%
X103760000Y-115570000D03*
X107060000Y-115570000D03*
%TD*%
D13*
%TO.C,SW50*%
X119380000Y-148590000D03*
D14*
X124460000Y-148590000D03*
D13*
X129540000Y-148590000D03*
D15*
X127000000Y-143510000D03*
X120650000Y-146050000D03*
%TD*%
D18*
%TO.C,H5*%
X239014000Y-157734000D03*
%TD*%
D17*
%TO.C,D4*%
X46610000Y-96520000D03*
X49910000Y-96520000D03*
%TD*%
D13*
%TO.C,SW20*%
X62230000Y-148590000D03*
D14*
X67310000Y-148590000D03*
D13*
X72390000Y-148590000D03*
D15*
X69850000Y-143510000D03*
X63500000Y-146050000D03*
%TD*%
D13*
%TO.C,SW3*%
X148590000Y-91440000D03*
D14*
X153670000Y-91440000D03*
D13*
X158750000Y-91440000D03*
D15*
X156210000Y-86360000D03*
X149860000Y-88900000D03*
%TD*%
D14*
%TO.C,TP5*%
X146685000Y-33020000D03*
%TD*%
D21*
%TO.C,C5*%
X200540000Y-55880000D03*
D22*
X185540000Y-55880000D03*
%TD*%
D17*
%TO.C,D48*%
X122810000Y-134620000D03*
X126110000Y-134620000D03*
%TD*%
%TO.C,D16*%
X66040000Y-115570000D03*
X69340000Y-115570000D03*
%TD*%
D13*
%TO.C,SW31*%
X205740000Y-72390000D03*
D14*
X210820000Y-72390000D03*
D13*
X215900000Y-72390000D03*
D15*
X213360000Y-67310000D03*
X207010000Y-69850000D03*
%TD*%
D13*
%TO.C,SW11*%
X167640000Y-72390000D03*
D14*
X172720000Y-72390000D03*
D13*
X177800000Y-72390000D03*
D15*
X175260000Y-67310000D03*
X168910000Y-69850000D03*
%TD*%
D11*
%TO.C,U3*%
X219100400Y-50292000D03*
X219100400Y-50800000D03*
X219100400Y-51308000D03*
X219100400Y-51816000D03*
X219100400Y-52324000D03*
X219100400Y-52832000D03*
X219100400Y-53340000D03*
X219100400Y-53848000D03*
X219100400Y-54356000D03*
D12*
X219913200Y-55168800D03*
X220421200Y-55168800D03*
X220929200Y-55168800D03*
X221437200Y-55168800D03*
X221945200Y-55168800D03*
X222453200Y-55168800D03*
X222961200Y-55168800D03*
X223469200Y-55168800D03*
X223977200Y-55168800D03*
D11*
X224790000Y-54356000D03*
X224790000Y-53848000D03*
X224790000Y-53340000D03*
X224790000Y-52832000D03*
X224790000Y-52324000D03*
X224790000Y-51816000D03*
X224790000Y-51308000D03*
X224790000Y-50800000D03*
X224790000Y-50292000D03*
D12*
X223977200Y-49479200D03*
X223469200Y-49479200D03*
X222961200Y-49479200D03*
X222453200Y-49479200D03*
X221945200Y-49479200D03*
X221437200Y-49479200D03*
X220929200Y-49479200D03*
X220421200Y-49479200D03*
X219913200Y-49479200D03*
%TD*%
D13*
%TO.C,SW38*%
X100330000Y-129540000D03*
D14*
X105410000Y-129540000D03*
D13*
X110490000Y-129540000D03*
D15*
X107950000Y-124460000D03*
X101600000Y-127000000D03*
%TD*%
D17*
%TO.C,D32*%
X104140000Y-77470000D03*
X107440000Y-77470000D03*
%TD*%
D21*
%TO.C,C1*%
X200540000Y-38100000D03*
D22*
X185540000Y-38100000D03*
%TD*%
D17*
%TO.C,D39*%
X209170000Y-153670000D03*
X212470000Y-153670000D03*
%TD*%
%TO.C,D17*%
X171070000Y-134620000D03*
X174370000Y-134620000D03*
%TD*%
D13*
%TO.C,SW35*%
X205740000Y-110490000D03*
D14*
X210820000Y-110490000D03*
D13*
X215900000Y-110490000D03*
D15*
X213360000Y-105410000D03*
X207010000Y-107950000D03*
%TD*%
D25*
%TO.C,U2*%
X110000000Y-31750000D03*
X110000000Y-34290000D03*
X110000000Y-36830000D03*
X110000000Y-39370000D03*
X110000000Y-41910000D03*
X110000000Y-44450000D03*
X110000000Y-46990000D03*
X126165000Y-46990000D03*
X126165000Y-44450000D03*
X126165000Y-41910000D03*
X126165000Y-39370000D03*
X126165000Y-36830000D03*
X126165000Y-34290000D03*
X126165000Y-31750000D03*
D26*
X113610000Y-39770000D03*
X113610000Y-36370000D03*
D27*
X121865000Y-48606900D03*
X123770000Y-48606900D03*
D13*
X116785000Y-30801500D03*
X119325000Y-30801500D03*
X116785000Y-33341500D03*
X119325000Y-33341500D03*
%TD*%
D24*
%TO.C,H12*%
X136605000Y-44390000D03*
X141605000Y-44390000D03*
X136605000Y-43640000D03*
X136605000Y-43640000D03*
X141605000Y-43640000D03*
X141605000Y-43640000D03*
X136605000Y-42890000D03*
X141605000Y-42890000D03*
X136605000Y-42140000D03*
X141605000Y-42140000D03*
X136605000Y-41390000D03*
X141605000Y-41390000D03*
X136605000Y-40640000D03*
X141605000Y-40640000D03*
X136605000Y-39890000D03*
X141605000Y-39890000D03*
X136605000Y-39140000D03*
X141605000Y-39140000D03*
X136605000Y-38390000D03*
X141605000Y-38390000D03*
X136605000Y-37640000D03*
X141605000Y-37640000D03*
X136605000Y-36890000D03*
X141605000Y-36890000D03*
%TD*%
D17*
%TO.C,D6*%
X46990000Y-115570000D03*
X50290000Y-115570000D03*
%TD*%
%TO.C,D2*%
X46610000Y-77470000D03*
X49910000Y-77470000D03*
%TD*%
D13*
%TO.C,SW10*%
X43180000Y-148590000D03*
D14*
X48260000Y-148590000D03*
D13*
X53340000Y-148590000D03*
D15*
X50800000Y-143510000D03*
X44450000Y-146050000D03*
%TD*%
D13*
%TO.C,SW4*%
X43180000Y-91440000D03*
D14*
X48260000Y-91440000D03*
D13*
X53340000Y-91440000D03*
D15*
X50800000Y-86360000D03*
X44450000Y-88900000D03*
%TD*%
D13*
%TO.C,SW48*%
X119380000Y-129540000D03*
D14*
X124460000Y-129540000D03*
D13*
X129540000Y-129540000D03*
D15*
X127000000Y-124460000D03*
X120650000Y-127000000D03*
%TD*%
D18*
%TO.C,H6*%
X133350000Y-120015000D03*
%TD*%
D13*
%TO.C,SW9*%
X148590000Y-148590000D03*
D14*
X153670000Y-148590000D03*
D13*
X158750000Y-148590000D03*
D15*
X156210000Y-143510000D03*
X149860000Y-146050000D03*
%TD*%
D13*
%TO.C,SW29*%
X186690000Y-148590000D03*
D14*
X191770000Y-148590000D03*
D13*
X196850000Y-148590000D03*
D15*
X194310000Y-143510000D03*
X187960000Y-146050000D03*
%TD*%
D23*
%TO.C,C4*%
X80250000Y-39370000D03*
D22*
X95250000Y-39370000D03*
%TD*%
D17*
%TO.C,D45*%
X228220000Y-115570000D03*
X231520000Y-115570000D03*
%TD*%
D13*
%TO.C,SW27*%
X186690000Y-129540000D03*
D14*
X191770000Y-129540000D03*
D13*
X196850000Y-129540000D03*
D15*
X194310000Y-124460000D03*
X187960000Y-127000000D03*
%TD*%
D28*
%TO.C,P2*%
X84408000Y-29464000D03*
X84908000Y-29464000D03*
X85408000Y-29464000D03*
X85908000Y-29464000D03*
X86408000Y-29464000D03*
X86908000Y-29464000D03*
X87408000Y-29464000D03*
X87908000Y-29464000D03*
X88408000Y-29464000D03*
X88908000Y-29464000D03*
X89408000Y-29464000D03*
X89908000Y-29464000D03*
D29*
X83738000Y-30304000D03*
%TD*%
D13*
%TO.C,SW8*%
X43180000Y-129540000D03*
D14*
X48260000Y-129540000D03*
D13*
X53340000Y-129540000D03*
D15*
X50800000Y-124460000D03*
X44450000Y-127000000D03*
%TD*%
D13*
%TO.C,SW39*%
X205740000Y-148590000D03*
D14*
X210820000Y-148590000D03*
D13*
X215900000Y-148590000D03*
D15*
X213360000Y-143510000D03*
X207010000Y-146050000D03*
%TD*%
D13*
%TO.C,SW24*%
X81280000Y-91440000D03*
D14*
X86360000Y-91440000D03*
D13*
X91440000Y-91440000D03*
D15*
X88900000Y-86360000D03*
X82550000Y-88900000D03*
%TD*%
D17*
%TO.C,D24*%
X84710000Y-96520000D03*
X88010000Y-96520000D03*
%TD*%
%TO.C,D28*%
X84710000Y-134620000D03*
X88010000Y-134620000D03*
%TD*%
D19*
%TO.C,J3*%
X215590000Y-41540000D03*
X213090000Y-41540000D03*
X211090000Y-41540000D03*
X208590000Y-41540000D03*
D20*
X218490000Y-37840000D03*
X205690000Y-37840000D03*
%TD*%
D17*
%TO.C,D44*%
X122810000Y-96520000D03*
X126110000Y-96520000D03*
%TD*%
D13*
%TO.C,SW30*%
X81280000Y-148590000D03*
D14*
X86360000Y-148590000D03*
D13*
X91440000Y-148590000D03*
D15*
X88900000Y-143510000D03*
X82550000Y-146050000D03*
%TD*%
D13*
%TO.C,SW34*%
X100330000Y-91440000D03*
D14*
X105410000Y-91440000D03*
D13*
X110490000Y-91440000D03*
D15*
X107950000Y-86360000D03*
X101600000Y-88900000D03*
%TD*%
D17*
%TO.C,D43*%
X228220000Y-96520000D03*
X231520000Y-96520000D03*
%TD*%
D13*
%TO.C,SW49*%
X224790000Y-148590000D03*
D14*
X229870000Y-148590000D03*
D13*
X234950000Y-148590000D03*
D15*
X232410000Y-143510000D03*
X226060000Y-146050000D03*
%TD*%
D13*
%TO.C,SW40*%
X100330000Y-148590000D03*
D14*
X105410000Y-148590000D03*
D13*
X110490000Y-148590000D03*
D15*
X107950000Y-143510000D03*
X101600000Y-146050000D03*
%TD*%
D17*
%TO.C,D21*%
X190120000Y-77470000D03*
X193420000Y-77470000D03*
%TD*%
D13*
%TO.C,SW21*%
X186690000Y-72390000D03*
D14*
X191770000Y-72390000D03*
D13*
X196850000Y-72390000D03*
D15*
X194310000Y-67310000D03*
X187960000Y-69850000D03*
%TD*%
D18*
%TO.C,H4*%
X43180000Y-57150000D03*
%TD*%
D17*
%TO.C,D38*%
X103760000Y-134620000D03*
X107060000Y-134620000D03*
%TD*%
%TO.C,D12*%
X65660000Y-77470000D03*
X68960000Y-77470000D03*
%TD*%
D13*
%TO.C,SW19*%
X167640000Y-148590000D03*
D14*
X172720000Y-148590000D03*
D13*
X177800000Y-148590000D03*
D15*
X175260000Y-143510000D03*
X168910000Y-146050000D03*
%TD*%
D17*
%TO.C,D30*%
X84710000Y-153670000D03*
X88010000Y-153670000D03*
%TD*%
D24*
%TO.C,H9*%
X136605000Y-95765000D03*
X141605000Y-95765000D03*
X136605000Y-95015000D03*
X136605000Y-95015000D03*
X141605000Y-95015000D03*
X141605000Y-95015000D03*
X136605000Y-94265000D03*
X141605000Y-94265000D03*
X136605000Y-93515000D03*
X141605000Y-93515000D03*
X136605000Y-92765000D03*
X141605000Y-92765000D03*
X136605000Y-92015000D03*
X141605000Y-92015000D03*
X136605000Y-91265000D03*
X141605000Y-91265000D03*
X136605000Y-90515000D03*
X141605000Y-90515000D03*
X136605000Y-89765000D03*
X141605000Y-89765000D03*
X136605000Y-89015000D03*
X141605000Y-89015000D03*
X136605000Y-88265000D03*
X141605000Y-88265000D03*
%TD*%
D19*
%TO.C,J1*%
X235860000Y-41540000D03*
X233360000Y-41540000D03*
X231360000Y-41540000D03*
X228860000Y-41540000D03*
D20*
X238760000Y-37840000D03*
X225960000Y-37840000D03*
%TD*%
D17*
%TO.C,D29*%
X190120000Y-153670000D03*
X193420000Y-153670000D03*
%TD*%
D13*
%TO.C,SW41*%
X224790000Y-72390000D03*
D14*
X229870000Y-72390000D03*
D13*
X234950000Y-72390000D03*
D15*
X232410000Y-67310000D03*
X226060000Y-69850000D03*
%TD*%
D13*
%TO.C,SW42*%
X119230000Y-72390000D03*
D14*
X124310000Y-72390000D03*
D13*
X129390000Y-72390000D03*
D15*
X126850000Y-67310000D03*
X120500000Y-69850000D03*
%TD*%
D13*
%TO.C,SW7*%
X148590000Y-129540000D03*
D14*
X153670000Y-129540000D03*
D13*
X158750000Y-129540000D03*
D15*
X156210000Y-124460000D03*
X149860000Y-127000000D03*
%TD*%
D13*
%TO.C,SW22*%
X81280000Y-72390000D03*
D14*
X86360000Y-72390000D03*
D13*
X91440000Y-72390000D03*
D15*
X88900000Y-67310000D03*
X82550000Y-69850000D03*
%TD*%
D23*
%TO.C,C6*%
X80130000Y-57150000D03*
D22*
X95130000Y-57150000D03*
%TD*%
D17*
%TO.C,D15*%
X171070000Y-115570000D03*
X174370000Y-115570000D03*
%TD*%
D24*
%TO.C,H14*%
X136605000Y-60960000D03*
X141605000Y-60960000D03*
X136605000Y-60210000D03*
X136605000Y-60210000D03*
X141605000Y-60210000D03*
X141605000Y-60210000D03*
X136605000Y-59460000D03*
X141605000Y-59460000D03*
X136605000Y-58710000D03*
X141605000Y-58710000D03*
X136605000Y-57960000D03*
X141605000Y-57960000D03*
X136605000Y-57210000D03*
X141605000Y-57210000D03*
X136605000Y-56460000D03*
X141605000Y-56460000D03*
X136605000Y-55710000D03*
X141605000Y-55710000D03*
X136605000Y-54960000D03*
X141605000Y-54960000D03*
X136605000Y-54210000D03*
X141605000Y-54210000D03*
X136605000Y-53460000D03*
X141605000Y-53460000D03*
%TD*%
D17*
%TO.C,D1*%
X152020000Y-77470000D03*
X155320000Y-77470000D03*
%TD*%
D13*
%TO.C,SW12*%
X62230000Y-72390000D03*
D14*
X67310000Y-72390000D03*
D13*
X72390000Y-72390000D03*
D15*
X69850000Y-67310000D03*
X63500000Y-69850000D03*
%TD*%
D17*
%TO.C,D47*%
X228220000Y-134620000D03*
X231520000Y-134620000D03*
%TD*%
D19*
%TO.C,J4*%
X73700000Y-42175000D03*
X71200000Y-42175000D03*
X69200000Y-42175000D03*
X66700000Y-42175000D03*
D20*
X76600000Y-38475000D03*
X63800000Y-38475000D03*
%TD*%
D13*
%TO.C,SW14*%
X62230000Y-91440000D03*
D14*
X67310000Y-91440000D03*
D13*
X72390000Y-91440000D03*
D15*
X69850000Y-86360000D03*
X63500000Y-88900000D03*
%TD*%
D28*
%TO.C,P1*%
X189410000Y-29390000D03*
X189910000Y-29390000D03*
X190410000Y-29390000D03*
X190910000Y-29390000D03*
X191410000Y-29390000D03*
X191910000Y-29390000D03*
X192410000Y-29390000D03*
X192910000Y-29390000D03*
X193410000Y-29390000D03*
X193910000Y-29390000D03*
X194410000Y-29390000D03*
X194910000Y-29390000D03*
D29*
X188740000Y-30230000D03*
%TD*%
D14*
%TO.C,TP6*%
X132715000Y-33020000D03*
%TD*%
D16*
%TO.C,TP1*%
X158750000Y-57150000D03*
%TD*%
D13*
%TO.C,SW23*%
X186690000Y-91440000D03*
D14*
X191770000Y-91440000D03*
D13*
X196850000Y-91440000D03*
D15*
X194310000Y-86360000D03*
X187960000Y-88900000D03*
%TD*%
D13*
%TO.C,SW16*%
X62230000Y-110490000D03*
D14*
X67310000Y-110490000D03*
D13*
X72390000Y-110490000D03*
D15*
X69850000Y-105410000D03*
X63500000Y-107950000D03*
%TD*%
D17*
%TO.C,D8*%
X46610000Y-134620000D03*
X49910000Y-134620000D03*
%TD*%
D13*
%TO.C,SW6*%
X43180000Y-110490000D03*
D14*
X48260000Y-110490000D03*
D13*
X53340000Y-110490000D03*
D15*
X50800000Y-105410000D03*
X44450000Y-107950000D03*
%TD*%
D13*
%TO.C,SW15*%
X167640000Y-110490000D03*
D14*
X172720000Y-110490000D03*
D13*
X177800000Y-110490000D03*
D15*
X175260000Y-105410000D03*
X168910000Y-107950000D03*
%TD*%
D17*
%TO.C,D35*%
X209170000Y-115570000D03*
X212470000Y-115570000D03*
%TD*%
%TO.C,D3*%
X152020000Y-96520000D03*
X155320000Y-96520000D03*
%TD*%
D13*
%TO.C,SW1*%
X148590000Y-72390000D03*
D14*
X153670000Y-72390000D03*
D13*
X158750000Y-72390000D03*
D15*
X156210000Y-67310000D03*
X149860000Y-69850000D03*
%TD*%
D17*
%TO.C,D42*%
X122810000Y-77470000D03*
X126110000Y-77470000D03*
%TD*%
%TO.C,D14*%
X65660000Y-96520000D03*
X68960000Y-96520000D03*
%TD*%
D13*
%TO.C,SW45*%
X224790000Y-110490000D03*
D14*
X229870000Y-110490000D03*
D13*
X234950000Y-110490000D03*
D15*
X232410000Y-105410000D03*
X226060000Y-107950000D03*
%TD*%
D13*
%TO.C,SW25*%
X186690000Y-110490000D03*
D14*
X191770000Y-110490000D03*
D13*
X196850000Y-110490000D03*
D15*
X194310000Y-105410000D03*
X187960000Y-107950000D03*
%TD*%
M02*
