%TF.GenerationSoftware,KiCad,Pcbnew,9.0.2*%
%TF.CreationDate,2025-10-08T19:34:12-05:00*%
%TF.ProjectId,keeb,6b656562-2e6b-4696-9361-645f70636258,rev?*%
%TF.SameCoordinates,Original*%
%TF.FileFunction,Soldermask,Bot*%
%TF.FilePolarity,Negative*%
%FSLAX46Y46*%
G04 Gerber Fmt 4.6, Leading zero omitted, Abs format (unit mm)*
G04 Created by KiCad (PCBNEW 9.0.2) date 2025-10-08 19:34:12*
%MOMM*%
%LPD*%
G01*
G04 APERTURE LIST*
G04 Aperture macros list*
%AMRoundRect*
0 Rectangle with rounded corners*
0 $1 Rounding radius*
0 $2 $3 $4 $5 $6 $7 $8 $9 X,Y pos of 4 corners*
0 Add a 4 corners polygon primitive as box body*
4,1,4,$2,$3,$4,$5,$6,$7,$8,$9,$2,$3,0*
0 Add four circle primitives for the rounded corners*
1,1,$1+$1,$2,$3*
1,1,$1+$1,$4,$5*
1,1,$1+$1,$6,$7*
1,1,$1+$1,$8,$9*
0 Add four rect primitives between the rounded corners*
20,1,$1+$1,$2,$3,$4,$5,0*
20,1,$1+$1,$4,$5,$6,$7,0*
20,1,$1+$1,$6,$7,$8,$9,0*
20,1,$1+$1,$8,$9,$2,$3,0*%
G04 Aperture macros list end*
%ADD10C,1.700000*%
%ADD11C,4.000000*%
%ADD12C,2.200000*%
%ADD13C,4.800000*%
%ADD14O,1.200000X2.900000*%
%ADD15RoundRect,0.250000X0.750000X0.750000X-0.750000X0.750000X-0.750000X-0.750000X0.750000X-0.750000X0*%
%ADD16C,2.000000*%
%ADD17RoundRect,0.250000X-0.750000X-0.750000X0.750000X-0.750000X0.750000X0.750000X-0.750000X0.750000X0*%
%ADD18C,0.500000*%
%ADD19RoundRect,0.775400X0.775400X0.775400X-0.775400X0.775400X-0.775400X-0.775400X0.775400X-0.775400X0*%
%ADD20R,0.380000X1.000000*%
%ADD21R,0.700000X1.150000*%
G04 APERTURE END LIST*
D10*
%TO.C,SW43*%
X224790000Y-91440000D03*
D11*
X229870000Y-91440000D03*
D10*
X234950000Y-91440000D03*
D12*
X232410000Y-86360000D03*
X226060000Y-88900000D03*
%TD*%
D10*
%TO.C,SW17*%
X167640000Y-129540000D03*
D11*
X172720000Y-129540000D03*
D10*
X177800000Y-129540000D03*
D12*
X175260000Y-124460000D03*
X168910000Y-127000000D03*
%TD*%
D10*
%TO.C,SW28*%
X81280000Y-129540000D03*
D11*
X86360000Y-129540000D03*
D10*
X91440000Y-129540000D03*
D12*
X88900000Y-124460000D03*
X82550000Y-127000000D03*
%TD*%
D10*
%TO.C,SW33*%
X205740000Y-91440000D03*
D11*
X210820000Y-91440000D03*
D10*
X215900000Y-91440000D03*
D12*
X213360000Y-86360000D03*
X207010000Y-88900000D03*
%TD*%
D10*
%TO.C,SW46*%
X119380000Y-110490000D03*
D11*
X124460000Y-110490000D03*
D10*
X129540000Y-110490000D03*
D12*
X127000000Y-105410000D03*
X120650000Y-107950000D03*
%TD*%
D10*
%TO.C,SW2*%
X43180000Y-72390000D03*
D11*
X48260000Y-72390000D03*
D10*
X53340000Y-72390000D03*
D12*
X50800000Y-67310000D03*
X44450000Y-69850000D03*
%TD*%
D10*
%TO.C,SW36*%
X100330000Y-110490000D03*
D11*
X105410000Y-110490000D03*
D10*
X110490000Y-110490000D03*
D12*
X107950000Y-105410000D03*
X101600000Y-107950000D03*
%TD*%
D10*
%TO.C,SW13*%
X167640000Y-91440000D03*
D11*
X172720000Y-91440000D03*
D10*
X177800000Y-91440000D03*
D12*
X175260000Y-86360000D03*
X168910000Y-88900000D03*
%TD*%
D13*
%TO.C,H2*%
X102870000Y-33020000D03*
%TD*%
D14*
%TO.C,J2*%
X54300000Y-38100000D03*
X41500000Y-38100000D03*
%TD*%
D13*
%TO.C,H3*%
X237490000Y-57150000D03*
%TD*%
D15*
%TO.C,C3*%
X200540000Y-46990000D03*
D16*
X185540000Y-46990000D03*
%TD*%
D13*
%TO.C,H8*%
X38608000Y-156972000D03*
%TD*%
D10*
%TO.C,SW44*%
X119380000Y-91440000D03*
D11*
X124460000Y-91440000D03*
D10*
X129540000Y-91440000D03*
D12*
X127000000Y-86360000D03*
X120650000Y-88900000D03*
%TD*%
D10*
%TO.C,SW47*%
X224790000Y-129540000D03*
D11*
X229870000Y-129540000D03*
D10*
X234950000Y-129540000D03*
D12*
X232410000Y-124460000D03*
X226060000Y-127000000D03*
%TD*%
D13*
%TO.C,H1*%
X177800000Y-33020000D03*
%TD*%
D10*
%TO.C,SW18*%
X62230000Y-129540000D03*
D11*
X67310000Y-129540000D03*
D10*
X72390000Y-129540000D03*
D12*
X69850000Y-124460000D03*
X63500000Y-127000000D03*
%TD*%
D10*
%TO.C,SW32*%
X100330000Y-72390000D03*
D11*
X105410000Y-72390000D03*
D10*
X110490000Y-72390000D03*
D12*
X107950000Y-67310000D03*
X101600000Y-69850000D03*
%TD*%
D17*
%TO.C,C2*%
X80130000Y-48260000D03*
D16*
X95130000Y-48260000D03*
%TD*%
D10*
%TO.C,SW5*%
X148590000Y-110490000D03*
D11*
X153670000Y-110490000D03*
D10*
X158750000Y-110490000D03*
D12*
X156210000Y-105410000D03*
X149860000Y-107950000D03*
%TD*%
D10*
%TO.C,SW26*%
X81280000Y-110490000D03*
D11*
X86360000Y-110490000D03*
D10*
X91440000Y-110490000D03*
D12*
X88900000Y-105410000D03*
X82550000Y-107950000D03*
%TD*%
D18*
%TO.C,H10*%
X136605000Y-152400000D03*
X141605000Y-152400000D03*
X136605000Y-151650000D03*
X136605000Y-151650000D03*
X141605000Y-151650000D03*
X141605000Y-151650000D03*
X136605000Y-150900000D03*
X141605000Y-150900000D03*
X136605000Y-150150000D03*
X141605000Y-150150000D03*
X136605000Y-149400000D03*
X141605000Y-149400000D03*
X136605000Y-148650000D03*
X141605000Y-148650000D03*
X136605000Y-147900000D03*
X141605000Y-147900000D03*
X136605000Y-147150000D03*
X141605000Y-147150000D03*
X136605000Y-146400000D03*
X141605000Y-146400000D03*
X136605000Y-145650000D03*
X141605000Y-145650000D03*
X136605000Y-144900000D03*
X141605000Y-144900000D03*
%TD*%
D13*
%TO.C,H7*%
X144780000Y-120015000D03*
%TD*%
D10*
%TO.C,SW37*%
X205740000Y-129540000D03*
D11*
X210820000Y-129540000D03*
D10*
X215900000Y-129540000D03*
D12*
X213360000Y-124460000D03*
X207010000Y-127000000D03*
%TD*%
D19*
%TO.C,U1*%
X158115000Y-39448500D03*
X158115000Y-36048500D03*
%TD*%
D10*
%TO.C,SW50*%
X119380000Y-148590000D03*
D11*
X124460000Y-148590000D03*
D10*
X129540000Y-148590000D03*
D12*
X127000000Y-143510000D03*
X120650000Y-146050000D03*
%TD*%
D13*
%TO.C,H5*%
X239014000Y-157734000D03*
%TD*%
D10*
%TO.C,SW20*%
X62230000Y-148590000D03*
D11*
X67310000Y-148590000D03*
D10*
X72390000Y-148590000D03*
D12*
X69850000Y-143510000D03*
X63500000Y-146050000D03*
%TD*%
D10*
%TO.C,SW3*%
X148590000Y-91440000D03*
D11*
X153670000Y-91440000D03*
D10*
X158750000Y-91440000D03*
D12*
X156210000Y-86360000D03*
X149860000Y-88900000D03*
%TD*%
D15*
%TO.C,C5*%
X200540000Y-55880000D03*
D16*
X185540000Y-55880000D03*
%TD*%
D10*
%TO.C,SW31*%
X205740000Y-72390000D03*
D11*
X210820000Y-72390000D03*
D10*
X215900000Y-72390000D03*
D12*
X213360000Y-67310000D03*
X207010000Y-69850000D03*
%TD*%
D10*
%TO.C,SW11*%
X167640000Y-72390000D03*
D11*
X172720000Y-72390000D03*
D10*
X177800000Y-72390000D03*
D12*
X175260000Y-67310000D03*
X168910000Y-69850000D03*
%TD*%
D10*
%TO.C,SW38*%
X100330000Y-129540000D03*
D11*
X105410000Y-129540000D03*
D10*
X110490000Y-129540000D03*
D12*
X107950000Y-124460000D03*
X101600000Y-127000000D03*
%TD*%
D15*
%TO.C,C1*%
X200540000Y-38100000D03*
D16*
X185540000Y-38100000D03*
%TD*%
D10*
%TO.C,SW35*%
X205740000Y-110490000D03*
D11*
X210820000Y-110490000D03*
D10*
X215900000Y-110490000D03*
D12*
X213360000Y-105410000D03*
X207010000Y-107950000D03*
%TD*%
D19*
%TO.C,U2*%
X113610000Y-39770000D03*
X113610000Y-36370000D03*
%TD*%
D18*
%TO.C,H12*%
X136605000Y-44390000D03*
X141605000Y-44390000D03*
X136605000Y-43640000D03*
X136605000Y-43640000D03*
X141605000Y-43640000D03*
X141605000Y-43640000D03*
X136605000Y-42890000D03*
X141605000Y-42890000D03*
X136605000Y-42140000D03*
X141605000Y-42140000D03*
X136605000Y-41390000D03*
X141605000Y-41390000D03*
X136605000Y-40640000D03*
X141605000Y-40640000D03*
X136605000Y-39890000D03*
X141605000Y-39890000D03*
X136605000Y-39140000D03*
X141605000Y-39140000D03*
X136605000Y-38390000D03*
X141605000Y-38390000D03*
X136605000Y-37640000D03*
X141605000Y-37640000D03*
X136605000Y-36890000D03*
X141605000Y-36890000D03*
%TD*%
D10*
%TO.C,SW10*%
X43180000Y-148590000D03*
D11*
X48260000Y-148590000D03*
D10*
X53340000Y-148590000D03*
D12*
X50800000Y-143510000D03*
X44450000Y-146050000D03*
%TD*%
D10*
%TO.C,SW4*%
X43180000Y-91440000D03*
D11*
X48260000Y-91440000D03*
D10*
X53340000Y-91440000D03*
D12*
X50800000Y-86360000D03*
X44450000Y-88900000D03*
%TD*%
D10*
%TO.C,SW48*%
X119380000Y-129540000D03*
D11*
X124460000Y-129540000D03*
D10*
X129540000Y-129540000D03*
D12*
X127000000Y-124460000D03*
X120650000Y-127000000D03*
%TD*%
D13*
%TO.C,H6*%
X133350000Y-120015000D03*
%TD*%
D10*
%TO.C,SW9*%
X148590000Y-148590000D03*
D11*
X153670000Y-148590000D03*
D10*
X158750000Y-148590000D03*
D12*
X156210000Y-143510000D03*
X149860000Y-146050000D03*
%TD*%
D10*
%TO.C,SW29*%
X186690000Y-148590000D03*
D11*
X191770000Y-148590000D03*
D10*
X196850000Y-148590000D03*
D12*
X194310000Y-143510000D03*
X187960000Y-146050000D03*
%TD*%
D17*
%TO.C,C4*%
X80250000Y-39370000D03*
D16*
X95250000Y-39370000D03*
%TD*%
D10*
%TO.C,SW27*%
X186690000Y-129540000D03*
D11*
X191770000Y-129540000D03*
D10*
X196850000Y-129540000D03*
D12*
X194310000Y-124460000D03*
X187960000Y-127000000D03*
%TD*%
D20*
%TO.C,P2*%
X91006000Y-30910000D03*
X90506000Y-30910000D03*
X90006000Y-30910000D03*
X89506000Y-30910000D03*
X89006000Y-30910000D03*
X87506000Y-30910000D03*
X87006000Y-30910000D03*
X86506000Y-30910000D03*
X86006000Y-30910000D03*
X85506000Y-30910000D03*
D21*
X91676000Y-31750000D03*
%TD*%
D10*
%TO.C,SW8*%
X43180000Y-129540000D03*
D11*
X48260000Y-129540000D03*
D10*
X53340000Y-129540000D03*
D12*
X50800000Y-124460000D03*
X44450000Y-127000000D03*
%TD*%
D10*
%TO.C,SW39*%
X205740000Y-148590000D03*
D11*
X210820000Y-148590000D03*
D10*
X215900000Y-148590000D03*
D12*
X213360000Y-143510000D03*
X207010000Y-146050000D03*
%TD*%
D10*
%TO.C,SW24*%
X81280000Y-91440000D03*
D11*
X86360000Y-91440000D03*
D10*
X91440000Y-91440000D03*
D12*
X88900000Y-86360000D03*
X82550000Y-88900000D03*
%TD*%
D14*
%TO.C,J3*%
X218490000Y-37840000D03*
X205690000Y-37840000D03*
%TD*%
D10*
%TO.C,SW30*%
X81280000Y-148590000D03*
D11*
X86360000Y-148590000D03*
D10*
X91440000Y-148590000D03*
D12*
X88900000Y-143510000D03*
X82550000Y-146050000D03*
%TD*%
D10*
%TO.C,SW34*%
X100330000Y-91440000D03*
D11*
X105410000Y-91440000D03*
D10*
X110490000Y-91440000D03*
D12*
X107950000Y-86360000D03*
X101600000Y-88900000D03*
%TD*%
D10*
%TO.C,SW49*%
X224790000Y-148590000D03*
D11*
X229870000Y-148590000D03*
D10*
X234950000Y-148590000D03*
D12*
X232410000Y-143510000D03*
X226060000Y-146050000D03*
%TD*%
D10*
%TO.C,SW40*%
X100330000Y-148590000D03*
D11*
X105410000Y-148590000D03*
D10*
X110490000Y-148590000D03*
D12*
X107950000Y-143510000D03*
X101600000Y-146050000D03*
%TD*%
D10*
%TO.C,SW21*%
X186690000Y-72390000D03*
D11*
X191770000Y-72390000D03*
D10*
X196850000Y-72390000D03*
D12*
X194310000Y-67310000D03*
X187960000Y-69850000D03*
%TD*%
D13*
%TO.C,H4*%
X43180000Y-57150000D03*
%TD*%
D10*
%TO.C,SW19*%
X167640000Y-148590000D03*
D11*
X172720000Y-148590000D03*
D10*
X177800000Y-148590000D03*
D12*
X175260000Y-143510000D03*
X168910000Y-146050000D03*
%TD*%
D18*
%TO.C,H9*%
X136605000Y-95765000D03*
X141605000Y-95765000D03*
X136605000Y-95015000D03*
X136605000Y-95015000D03*
X141605000Y-95015000D03*
X141605000Y-95015000D03*
X136605000Y-94265000D03*
X141605000Y-94265000D03*
X136605000Y-93515000D03*
X141605000Y-93515000D03*
X136605000Y-92765000D03*
X141605000Y-92765000D03*
X136605000Y-92015000D03*
X141605000Y-92015000D03*
X136605000Y-91265000D03*
X141605000Y-91265000D03*
X136605000Y-90515000D03*
X141605000Y-90515000D03*
X136605000Y-89765000D03*
X141605000Y-89765000D03*
X136605000Y-89015000D03*
X141605000Y-89015000D03*
X136605000Y-88265000D03*
X141605000Y-88265000D03*
%TD*%
D14*
%TO.C,J1*%
X238760000Y-37840000D03*
X225960000Y-37840000D03*
%TD*%
D10*
%TO.C,SW41*%
X224790000Y-72390000D03*
D11*
X229870000Y-72390000D03*
D10*
X234950000Y-72390000D03*
D12*
X232410000Y-67310000D03*
X226060000Y-69850000D03*
%TD*%
D10*
%TO.C,SW42*%
X119230000Y-72390000D03*
D11*
X124310000Y-72390000D03*
D10*
X129390000Y-72390000D03*
D12*
X126850000Y-67310000D03*
X120500000Y-69850000D03*
%TD*%
D10*
%TO.C,SW7*%
X148590000Y-129540000D03*
D11*
X153670000Y-129540000D03*
D10*
X158750000Y-129540000D03*
D12*
X156210000Y-124460000D03*
X149860000Y-127000000D03*
%TD*%
D10*
%TO.C,SW22*%
X81280000Y-72390000D03*
D11*
X86360000Y-72390000D03*
D10*
X91440000Y-72390000D03*
D12*
X88900000Y-67310000D03*
X82550000Y-69850000D03*
%TD*%
D17*
%TO.C,C6*%
X80130000Y-57150000D03*
D16*
X95130000Y-57150000D03*
%TD*%
D18*
%TO.C,H14*%
X136605000Y-60960000D03*
X141605000Y-60960000D03*
X136605000Y-60210000D03*
X136605000Y-60210000D03*
X141605000Y-60210000D03*
X141605000Y-60210000D03*
X136605000Y-59460000D03*
X141605000Y-59460000D03*
X136605000Y-58710000D03*
X141605000Y-58710000D03*
X136605000Y-57960000D03*
X141605000Y-57960000D03*
X136605000Y-57210000D03*
X141605000Y-57210000D03*
X136605000Y-56460000D03*
X141605000Y-56460000D03*
X136605000Y-55710000D03*
X141605000Y-55710000D03*
X136605000Y-54960000D03*
X141605000Y-54960000D03*
X136605000Y-54210000D03*
X141605000Y-54210000D03*
X136605000Y-53460000D03*
X141605000Y-53460000D03*
%TD*%
D10*
%TO.C,SW12*%
X62230000Y-72390000D03*
D11*
X67310000Y-72390000D03*
D10*
X72390000Y-72390000D03*
D12*
X69850000Y-67310000D03*
X63500000Y-69850000D03*
%TD*%
D14*
%TO.C,J4*%
X76600000Y-38475000D03*
X63800000Y-38475000D03*
%TD*%
D10*
%TO.C,SW14*%
X62230000Y-91440000D03*
D11*
X67310000Y-91440000D03*
D10*
X72390000Y-91440000D03*
D12*
X69850000Y-86360000D03*
X63500000Y-88900000D03*
%TD*%
D20*
%TO.C,P1*%
X194910000Y-31496000D03*
X194410000Y-31496000D03*
X193910000Y-31496000D03*
X193410000Y-31496000D03*
X192910000Y-31496000D03*
X191410000Y-31496000D03*
X190910000Y-31496000D03*
X190410000Y-31496000D03*
X189910000Y-31496000D03*
X189410000Y-31496000D03*
D21*
X195580000Y-32336000D03*
%TD*%
D10*
%TO.C,SW23*%
X186690000Y-91440000D03*
D11*
X191770000Y-91440000D03*
D10*
X196850000Y-91440000D03*
D12*
X194310000Y-86360000D03*
X187960000Y-88900000D03*
%TD*%
D10*
%TO.C,SW16*%
X62230000Y-110490000D03*
D11*
X67310000Y-110490000D03*
D10*
X72390000Y-110490000D03*
D12*
X69850000Y-105410000D03*
X63500000Y-107950000D03*
%TD*%
D10*
%TO.C,SW6*%
X43180000Y-110490000D03*
D11*
X48260000Y-110490000D03*
D10*
X53340000Y-110490000D03*
D12*
X50800000Y-105410000D03*
X44450000Y-107950000D03*
%TD*%
D10*
%TO.C,SW15*%
X167640000Y-110490000D03*
D11*
X172720000Y-110490000D03*
D10*
X177800000Y-110490000D03*
D12*
X175260000Y-105410000D03*
X168910000Y-107950000D03*
%TD*%
D10*
%TO.C,SW1*%
X148590000Y-72390000D03*
D11*
X153670000Y-72390000D03*
D10*
X158750000Y-72390000D03*
D12*
X156210000Y-67310000D03*
X149860000Y-69850000D03*
%TD*%
D10*
%TO.C,SW45*%
X224790000Y-110490000D03*
D11*
X229870000Y-110490000D03*
D10*
X234950000Y-110490000D03*
D12*
X232410000Y-105410000D03*
X226060000Y-107950000D03*
%TD*%
D10*
%TO.C,SW25*%
X186690000Y-110490000D03*
D11*
X191770000Y-110490000D03*
D10*
X196850000Y-110490000D03*
D12*
X194310000Y-105410000D03*
X187960000Y-107950000D03*
%TD*%
M02*
