M48
; DRILL file {KiCad 9.0.2} date 2025-10-07T18:43:29-0500
; FORMAT={-:-/ absolute / metric / decimal}
; #@! TF.CreationDate,2025-10-07T18:43:29-05:00
; #@! TF.GenerationSoftware,Kicad,Pcbnew,9.0.2
; #@! TF.FileFunction,Plated,1,2,PTH
FMAT,2
METRIC
; #@! TA.AperFunction,Plated,PTH,ViaDrill
T1C0.300
; #@! TA.AperFunction,Plated,PTH,ComponentDrill
T2C0.600
; #@! TA.AperFunction,Plated,PTH,ComponentDrill
T3C1.000
; #@! TA.AperFunction,Plated,PTH,ComponentDrill
T4C1.500
; #@! TA.AperFunction,Plated,PTH,ComponentDrill
T5C2.500
; #@! TA.AperFunction,Plated,PTH,ComponentDrill
T6C2.800
%
G90
G05
T1
X46.99Y-115.57
X50.2Y-99.06
X52.07Y-50.8
X57.15Y-52.07
X59.69Y-45.72
X60.15Y-49.919
X64.77Y-41.91
X65.66Y-77.47
X65.66Y-134.62
X66.04Y-82.55
X66.04Y-115.57
X66.04Y-153.67
X66.7Y-42.175
X68.58Y-102.87
X71.12Y-134.62
X72.39Y-96.52
X73.66Y-33.02
X74.93Y-31.75
X76.2Y-146.07
X78.74Y-147.32
X80.13Y-45.72
X80.264Y-30.734
X81.626Y-31.199
X83.82Y-113.03
X83.82Y-119.38
X84.449Y-33.02
X84.71Y-77.47
X85.911Y-95.27
X86.093Y-36.562
X87.606Y-32.094
X87.8Y-33.603
X88.4Y-37.45
X93.98Y-149.86
X103.76Y-96.52
X103.76Y-115.57
X104.14Y-77.47
X110.0Y-31.75
X110.0Y-34.29
X110.0Y-39.37
X110.0Y-41.91
X110.0Y-44.45
X111.125Y-48.895
X111.61Y-35.556
X111.866Y-42.569
X112.337Y-32.42
X113.665Y-31.75
X118.179Y-101.151
X120.65Y-62.23
X120.65Y-64.77
X122.81Y-96.52
X123.19Y-41.275
X125.73Y-80.01
X126.165Y-44.45
X128.905Y-64.135
X129.54Y-60.96
X132.715Y-40.64
X132.715Y-97.79
X133.35Y-66.04
X134.62Y-33.02
X135.148Y-84.562
X145.415Y-37.465
X146.72Y-78.105
X150.495Y-30.01
X151.892Y-34.29
X152.02Y-77.47
X152.02Y-96.52
X152.02Y-115.57
X152.02Y-134.62
X152.02Y-153.67
X152.4Y-60.96
X152.4Y-79.375
X152.475Y-86.92
X153.035Y-99.06
X153.095Y-48.895
X153.095Y-51.435
X153.67Y-142.91
X153.704Y-52.07
X153.777Y-61.488
X154.305Y-52.705
X154.505Y-44.128
X155.32Y-77.47
X155.575Y-50.165
X156.845Y-31.915
X158.211Y-99.06
X158.75Y-64.77
X158.75Y-67.31
X160.02Y-115.57
X160.02Y-144.78
X161.27Y-67.945
X161.87Y-55.245
X162.58Y-60.36
X163.56Y-59.93
X166.37Y-59.69
X170.369Y-109.031
X170.38Y-63.57
X170.67Y-46.668
X170.708Y-81.173
X171.07Y-77.47
X172.72Y-80.01
X184.785Y-99.06
X184.785Y-114.3
X186.089Y-98.425
X187.96Y-86.36
X188.595Y-118.11
X190.5Y-83.82
X195.58Y-35.814
X198.12Y-124.46
X202.551Y-36.089
X203.2Y-104.14
X205.74Y-104.14
X211.09Y-41.54
X213.09Y-41.54
X214.376Y-39.116
X217.384Y-50.586
X217.594Y-51.646
X217.932Y-46.99
X220.552Y-48.086
X221.945Y-52.324
X222.196Y-43.941
X222.373Y-47.113
X223.008Y-46.478
X223.012Y-44.196
X228.86Y-41.54
X231.14Y-37.846
X232.156Y-38.862
X232.795Y-36.09
T3
X80.13Y-48.26
X80.13Y-57.15
X80.25Y-39.37
X95.13Y-48.26
X95.13Y-57.15
X95.25Y-39.37
X185.54Y-38.1
X185.54Y-46.99
X185.54Y-55.88
X200.54Y-38.1
X200.54Y-46.99
X200.54Y-55.88
T4
X44.45Y-69.85
X44.45Y-88.9
X44.45Y-107.95
X44.45Y-127.0
X44.45Y-146.05
X50.8Y-67.31
X50.8Y-86.36
X50.8Y-105.41
X50.8Y-124.46
X50.8Y-143.51
X63.5Y-69.85
X63.5Y-88.9
X63.5Y-107.95
X63.5Y-127.0
X63.5Y-146.05
X69.85Y-67.31
X69.85Y-86.36
X69.85Y-105.41
X69.85Y-124.46
X69.85Y-143.51
X82.55Y-69.85
X82.55Y-88.9
X82.55Y-107.95
X82.55Y-127.0
X82.55Y-146.05
X88.9Y-67.31
X88.9Y-86.36
X88.9Y-105.41
X88.9Y-124.46
X88.9Y-143.51
X101.6Y-69.85
X101.6Y-88.9
X101.6Y-107.95
X101.6Y-127.0
X101.6Y-146.05
X107.95Y-67.31
X107.95Y-86.36
X107.95Y-105.41
X107.95Y-124.46
X107.95Y-143.51
X120.5Y-69.85
X120.65Y-88.9
X120.65Y-107.95
X120.65Y-127.0
X120.65Y-146.05
X126.85Y-67.31
X127.0Y-86.36
X127.0Y-105.41
X127.0Y-124.46
X127.0Y-143.51
X149.86Y-69.85
X149.86Y-88.9
X149.86Y-107.95
X149.86Y-127.0
X149.86Y-146.05
X156.21Y-67.31
X156.21Y-86.36
X156.21Y-105.41
X156.21Y-124.46
X156.21Y-143.51
X168.91Y-69.85
X168.91Y-88.9
X168.91Y-107.95
X168.91Y-127.0
X168.91Y-146.05
X175.26Y-67.31
X175.26Y-86.36
X175.26Y-105.41
X175.26Y-124.46
X175.26Y-143.51
X187.96Y-69.85
X187.96Y-88.9
X187.96Y-107.95
X187.96Y-127.0
X187.96Y-146.05
X194.31Y-67.31
X194.31Y-86.36
X194.31Y-105.41
X194.31Y-124.46
X194.31Y-143.51
X207.01Y-69.85
X207.01Y-88.9
X207.01Y-107.95
X207.01Y-127.0
X207.01Y-146.05
X213.36Y-67.31
X213.36Y-86.36
X213.36Y-105.41
X213.36Y-124.46
X213.36Y-143.51
X226.06Y-69.85
X226.06Y-88.9
X226.06Y-107.95
X226.06Y-127.0
X226.06Y-146.05
X232.41Y-67.31
X232.41Y-86.36
X232.41Y-105.41
X232.41Y-124.46
X232.41Y-143.51
T5
X113.61Y-36.37
X113.61Y-39.77
X158.115Y-36.048
X158.115Y-39.448
T6
X38.608Y-156.972
X43.18Y-57.15
X102.87Y-33.02
X133.35Y-120.015
X144.78Y-120.015
X177.8Y-33.02
X237.49Y-57.15
X239.014Y-157.734
T2
G00X41.5Y-38.95
M15
G01X41.5Y-37.25
M16
G05
G00X54.3Y-38.95
M15
G01X54.3Y-37.25
M16
G05
G00X63.8Y-39.325
M15
G01X63.8Y-37.625
M16
G05
G00X76.6Y-39.325
M15
G01X76.6Y-37.625
M16
G05
G00X205.69Y-38.69
M15
G01X205.69Y-36.99
M16
G05
G00X218.49Y-38.69
M15
G01X218.49Y-36.99
M16
G05
G00X225.96Y-38.69
M15
G01X225.96Y-36.99
M16
G05
G00X238.76Y-38.69
M15
G01X238.76Y-36.99
M16
G05
M30
